<svg xmlns="http://www.w3.org/2000/svg" viewBox="0 0 1600 1000" preserveAspectRatio="xMidYMid slice"><defs><linearGradient id="alelg1" x1="0" y1="0" x2="0" y2="1"><stop offset="0" stop-color="#1f2a4f"/><stop offset="0.6" stop-color="#4b4d86"/><stop offset="1" stop-color="#e6a57a"/></linearGradient><radialGradient id="alerg2" cx="0.5" cy="0.5" r="0.5"><stop offset="0" stop-color="#ffffff" stop-opacity="0.55"/><stop offset="1" stop-color="#ffffff" stop-opacity="0"/></radialGradient><linearGradient id="alelg3" x1="0" y1="0" x2="0" y2="1"><stop offset="0" stop-color="#3d4478"/><stop offset="1" stop-color="#161a3a"/></linearGradient><filter id="alefl4"><feTurbulence type="fractalNoise" baseFrequency=".8" numOctaves="2" stitchTiles="stitch"/><feColorMatrix values="0 0 0 0 0  0 0 0 0 0  0 0 0 0 0  0 0 0 .9 0"/></filter></defs><rect width="1600" height="1000" fill="url(#alelg1)"/><circle cx="144.5" cy="361.2" r="1.0" fill="#fff" opacity="0.8"/><circle cx="1346.0" cy="283.9" r="1.3" fill="#fff" opacity="0.5"/><circle cx="1155.0" cy="366.9" r="1.9" fill="#fff" opacity="0.7"/><circle cx="620.6" cy="154.2" r="2.0" fill="#fff" opacity="0.6"/><circle cx="854.7" cy="239.8" r="1.8" fill="#fff" opacity="0.3"/><circle cx="369.0" cy="268.2" r="1.7" fill="#fff" opacity="0.8"/><circle cx="84.0" cy="88.1" r="1.6" fill="#fff" opacity="0.8"/><circle cx="312.1" cy="290.6" r="1.5" fill="#fff" opacity="0.5"/><circle cx="1327.1" cy="40.7" r="2.3" fill="#fff" opacity="0.5"/><circle cx="579.7" cy="77.2" r="1.5" fill="#fff" opacity="0.8"/><circle cx="353.7" cy="210.5" r="1.5" fill="#fff" opacity="0.5"/><circle cx="208.3" cy="265.2" r="1.5" fill="#fff" opacity="0.6"/><circle cx="964.3" cy="40.6" r="2.1" fill="#fff" opacity="0.9"/><circle cx="406.9" cy="310.1" r="1.9" fill="#fff" opacity="0.5"/><circle cx="431.8" cy="31.9" r="1.5" fill="#fff" opacity="0.6"/><circle cx="778.9" cy="183.0" r="1.7" fill="#fff" opacity="0.4"/><circle cx="359.3" cy="212.5" r="1.6" fill="#fff" opacity="0.4"/><circle cx="442.9" cy="372.1" r="2.1" fill="#fff" opacity="0.8"/><circle cx="568.5" cy="159.1" r="1.9" fill="#fff" opacity="0.7"/><circle cx="1024.8" cy="13.5" r="1.9" fill="#fff" opacity="0.4"/><circle cx="523.9" cy="201.7" r="2.3" fill="#fff" opacity="0.6"/><circle cx="1033.8" cy="79.3" r="2.3" fill="#fff" opacity="0.5"/><circle cx="865.4" cy="258.7" r="1.9" fill="#fff" opacity="0.6"/><circle cx="1035.4" cy="3.9" r="2.4" fill="#fff" opacity="0.7"/><circle cx="952.2" cy="96.7" r="1.6" fill="#fff" opacity="0.7"/><circle cx="659.9" cy="46.2" r="1.1" fill="#fff" opacity="0.9"/><circle cx="329.1" cy="195.4" r="1.9" fill="#fff" opacity="0.4"/><circle cx="1292.4" cy="180.8" r="2.3" fill="#fff" opacity="0.4"/><circle cx="680.6" cy="137.8" r="1.2" fill="#fff" opacity="0.6"/><circle cx="683.3" cy="149.8" r="2.2" fill="#fff" opacity="0.5"/><circle cx="90.0" cy="285.1" r="1.5" fill="#fff" opacity="0.3"/><circle cx="1207.4" cy="275.9" r="1.8" fill="#fff" opacity="0.8"/><circle cx="431.3" cy="319.4" r="1.4" fill="#fff" opacity="0.9"/><circle cx="1597.7" cy="210.6" r="1.5" fill="#fff" opacity="0.8"/><circle cx="1151.1" cy="192.0" r="0.9" fill="#fff" opacity="0.5"/><circle cx="1088.8" cy="5.3" r="1.5" fill="#fff" opacity="0.9"/><circle cx="1144.1" cy="99.0" r="1.0" fill="#fff" opacity="0.7"/><circle cx="984.2" cy="108.8" r="1.6" fill="#fff" opacity="0.9"/><circle cx="1040.2" cy="206.1" r="0.9" fill="#fff" opacity="0.6"/><circle cx="36.0" cy="366.2" r="1.6" fill="#fff" opacity="0.7"/><circle cx="1089.1" cy="15.3" r="2.1" fill="#fff" opacity="0.8"/><circle cx="115.1" cy="347.6" r="2.2" fill="#fff" opacity="0.9"/><circle cx="148.1" cy="348.0" r="2.0" fill="#fff" opacity="0.5"/><circle cx="127.2" cy="257.1" r="0.9" fill="#fff" opacity="0.7"/><circle cx="1289.0" cy="150.6" r="1.3" fill="#fff" opacity="0.6"/><circle cx="182.5" cy="23.7" r="1.7" fill="#fff" opacity="0.8"/><circle cx="1586.7" cy="39.6" r="1.3" fill="#fff" opacity="0.8"/><circle cx="466.9" cy="291.9" r="2.3" fill="#fff" opacity="0.9"/><circle cx="998.9" cy="276.8" r="2.2" fill="#fff" opacity="0.4"/><circle cx="538.6" cy="278.9" r="1.6" fill="#fff" opacity="0.8"/><circle cx="1559.4" cy="275.2" r="1.7" fill="#fff" opacity="0.8"/><circle cx="1483.2" cy="37.4" r="0.9" fill="#fff" opacity="0.8"/><circle cx="1364.6" cy="250.2" r="1.5" fill="#fff" opacity="0.5"/><circle cx="1574.7" cy="267.9" r="2.4" fill="#fff" opacity="0.7"/><circle cx="1367.3" cy="87.6" r="2.0" fill="#fff" opacity="0.4"/><circle cx="523.2" cy="170.4" r="1.6" fill="#fff" opacity="0.9"/><circle cx="1007.9" cy="40.9" r="2.1" fill="#fff" opacity="0.8"/><circle cx="1327.8" cy="355.2" r="2.1" fill="#fff" opacity="0.6"/><circle cx="1064.1" cy="20.9" r="1.4" fill="#fff" opacity="0.6"/><circle cx="1178.4" cy="23.4" r="1.1" fill="#fff" opacity="0.5"/><circle cx="300" cy="200" r="128.0" fill="url(#alerg2)"/><circle cx="300" cy="200" r="40" fill="#fff2d6" opacity="0.9"/><rect x="820.0" y="316.0" width="55.0" height="304.0" fill="#3a3f6e"/><rect x="842" y="329" width="5" height="8" fill="#ffd88a" opacity="0.5"/><rect x="856" y="347" width="5" height="8" fill="#ffd88a" opacity="1.0"/><rect x="842" y="383" width="5" height="8" fill="#ffd88a" opacity="0.8"/><rect x="842" y="401" width="5" height="8" fill="#ffd88a" opacity="0.9"/><rect x="842" y="419" width="5" height="8" fill="#ffd88a" opacity="0.5"/><rect x="828" y="437" width="5" height="8" fill="#ffd88a" opacity="0.7"/><rect x="842" y="455" width="5" height="8" fill="#ffd88a" opacity="0.8"/><rect x="828" y="491" width="5" height="8" fill="#ffd88a" opacity="0.9"/><rect x="856" y="491" width="5" height="8" fill="#ffd88a" opacity="0.6"/><rect x="856" y="509" width="5" height="8" fill="#ffd88a" opacity="0.5"/><rect x="842" y="545" width="5" height="8" fill="#ffd88a" opacity="1.0"/><rect x="842" y="563" width="5" height="8" fill="#ffd88a" opacity="0.9"/><rect x="875.5" y="291.6" width="99.0" height="328.4" fill="#3a3f6e"/><rect x="900.0" y="252.2" width="49.0" height="40.4" fill="#3a3f6e"/><rect x="939" y="323" width="5" height="8" fill="#ffd88a" opacity="0.8"/><rect x="883" y="341" width="5" height="8" fill="#ffd88a" opacity="0.9"/><rect x="953" y="341" width="5" height="8" fill="#ffd88a" opacity="0.6"/><rect x="883" y="359" width="5" height="8" fill="#ffd88a" opacity="0.8"/><rect x="897" y="359" width="5" height="8" fill="#ffd88a" opacity="0.8"/><rect x="939" y="377" width="5" height="8" fill="#ffd88a" opacity="0.9"/><rect x="897" y="395" width="5" height="8" fill="#ffd88a" opacity="0.8"/><rect x="911" y="395" width="5" height="8" fill="#ffd88a" opacity="0.7"/><rect x="911" y="413" width="5" height="8" fill="#ffd88a" opacity="0.8"/><rect x="939" y="413" width="5" height="8" fill="#ffd88a" opacity="0.8"/><rect x="883" y="431" width="5" height="8" fill="#ffd88a" opacity="0.9"/><rect x="897" y="431" width="5" height="8" fill="#ffd88a" opacity="0.9"/><rect x="911" y="431" width="5" height="8" fill="#ffd88a" opacity="0.9"/><rect x="953" y="431" width="5" height="8" fill="#ffd88a" opacity="0.8"/><rect x="925" y="449" width="5" height="8" fill="#ffd88a" opacity="0.6"/><rect x="883" y="467" width="5" height="8" fill="#ffd88a" opacity="0.8"/><rect x="897" y="467" width="5" height="8" fill="#ffd88a" opacity="0.9"/><rect x="939" y="467" width="5" height="8" fill="#ffd88a" opacity="1.0"/><rect x="953" y="467" width="5" height="8" fill="#ffd88a" opacity="0.8"/><rect x="883" y="485" width="5" height="8" fill="#ffd88a" opacity="0.6"/><rect x="897" y="485" width="5" height="8" fill="#ffd88a" opacity="0.9"/><rect x="925" y="485" width="5" height="8" fill="#ffd88a" opacity="0.5"/><rect x="953" y="485" width="5" height="8" fill="#ffd88a" opacity="0.9"/><rect x="911" y="503" width="5" height="8" fill="#ffd88a" opacity="0.6"/><rect x="911" y="521" width="5" height="8" fill="#ffd88a" opacity="0.6"/><rect x="925" y="521" width="5" height="8" fill="#ffd88a" opacity="0.5"/><rect x="953" y="521" width="5" height="8" fill="#ffd88a" opacity="1.0"/><rect x="911" y="539" width="5" height="8" fill="#ffd88a" opacity="0.9"/><rect x="953" y="539" width="5" height="8" fill="#ffd88a" opacity="1.0"/><rect x="925" y="557" width="5" height="8" fill="#ffd88a" opacity="0.9"/><rect x="939" y="557" width="5" height="8" fill="#ffd88a" opacity="0.8"/><rect x="925" y="575" width="5" height="8" fill="#ffd88a" opacity="0.6"/><rect x="883" y="593" width="5" height="8" fill="#ffd88a" opacity="0.6"/><rect x="897" y="593" width="5" height="8" fill="#ffd88a" opacity="0.9"/><rect x="925" y="593" width="5" height="8" fill="#ffd88a" opacity="0.9"/><rect x="953" y="593" width="5" height="8" fill="#ffd88a" opacity="0.8"/><rect x="976.4" y="369.9" width="55.9" height="250.1" fill="#3a3f6e"/><rect x="990.2" y="339.9" width="27.5" height="31.0" fill="#3a3f6e"/><rect x="984" y="383" width="5" height="8" fill="#ffd88a" opacity="0.7"/><rect x="1012" y="383" width="5" height="8" fill="#ffd88a" opacity="0.7"/><rect x="1012" y="401" width="5" height="8" fill="#ffd88a" opacity="0.9"/><rect x="998" y="419" width="5" height="8" fill="#ffd88a" opacity="0.9"/><rect x="998" y="455" width="5" height="8" fill="#ffd88a" opacity="1.0"/><rect x="984" y="491" width="5" height="8" fill="#ffd88a" opacity="0.7"/><rect x="998" y="491" width="5" height="8" fill="#ffd88a" opacity="0.9"/><rect x="984" y="509" width="5" height="8" fill="#ffd88a" opacity="0.9"/><rect x="1012" y="509" width="5" height="8" fill="#ffd88a" opacity="0.5"/><rect x="1012" y="527" width="5" height="8" fill="#ffd88a" opacity="0.7"/><rect x="984" y="545" width="5" height="8" fill="#ffd88a" opacity="0.7"/><rect x="984" y="563" width="5" height="8" fill="#ffd88a" opacity="0.7"/><rect x="1012" y="563" width="5" height="8" fill="#ffd88a" opacity="0.9"/><rect x="998" y="581" width="5" height="8" fill="#ffd88a" opacity="0.7"/><rect x="1012" y="599" width="5" height="8" fill="#ffd88a" opacity="0.6"/><rect x="1034.6" y="306.4" width="91.2" height="313.6" fill="#3a3f6e"/><rect x="1056" y="320" width="5" height="8" fill="#ffd88a" opacity="1.0"/><rect x="1112" y="338" width="5" height="8" fill="#ffd88a" opacity="1.0"/><rect x="1098" y="356" width="5" height="8" fill="#ffd88a" opacity="1.0"/><rect x="1112" y="356" width="5" height="8" fill="#ffd88a" opacity="0.9"/><rect x="1112" y="374" width="5" height="8" fill="#ffd88a" opacity="0.8"/><rect x="1070" y="392" width="5" height="8" fill="#ffd88a" opacity="0.8"/><rect x="1098" y="392" width="5" height="8" fill="#ffd88a" opacity="0.6"/><rect x="1056" y="410" width="5" height="8" fill="#ffd88a" opacity="0.6"/><rect x="1084" y="410" width="5" height="8" fill="#ffd88a" opacity="0.6"/><rect x="1056" y="428" width="5" height="8" fill="#ffd88a" opacity="0.7"/><rect x="1070" y="428" width="5" height="8" fill="#ffd88a" opacity="0.8"/><rect x="1084" y="428" width="5" height="8" fill="#ffd88a" opacity="0.8"/><rect x="1098" y="428" width="5" height="8" fill="#ffd88a" opacity="0.5"/><rect x="1112" y="428" width="5" height="8" fill="#ffd88a" opacity="1.0"/><rect x="1042" y="446" width="5" height="8" fill="#ffd88a" opacity="0.6"/><rect x="1070" y="446" width="5" height="8" fill="#ffd88a" opacity="0.9"/><rect x="1084" y="446" width="5" height="8" fill="#ffd88a" opacity="1.0"/><rect x="1112" y="446" width="5" height="8" fill="#ffd88a" opacity="0.6"/><rect x="1056" y="464" width="5" height="8" fill="#ffd88a" opacity="1.0"/><rect x="1070" y="482" width="5" height="8" fill="#ffd88a" opacity="1.0"/><rect x="1084" y="482" width="5" height="8" fill="#ffd88a" opacity="0.9"/><rect x="1112" y="482" width="5" height="8" fill="#ffd88a" opacity="0.7"/><rect x="1056" y="500" width="5" height="8" fill="#ffd88a" opacity="0.8"/><rect x="1098" y="500" width="5" height="8" fill="#ffd88a" opacity="0.5"/><rect x="1098" y="518" width="5" height="8" fill="#ffd88a" opacity="0.6"/><rect x="1084" y="536" width="5" height="8" fill="#ffd88a" opacity="0.8"/><rect x="1098" y="536" width="5" height="8" fill="#ffd88a" opacity="0.6"/><rect x="1056" y="554" width="5" height="8" fill="#ffd88a" opacity="0.7"/><rect x="1070" y="554" width="5" height="8" fill="#ffd88a" opacity="0.7"/><rect x="1084" y="554" width="5" height="8" fill="#ffd88a" opacity="0.9"/><rect x="1112" y="554" width="5" height="8" fill="#ffd88a" opacity="0.9"/><rect x="1070" y="590" width="5" height="8" fill="#ffd88a" opacity="0.7"/><rect x="1084" y="590" width="5" height="8" fill="#ffd88a" opacity="0.8"/><rect x="1098" y="590" width="5" height="8" fill="#ffd88a" opacity="0.8"/><rect x="1042" y="608" width="5" height="8" fill="#ffd88a" opacity="0.5"/><rect x="1070" y="608" width="5" height="8" fill="#ffd88a" opacity="0.9"/><rect x="1127.3" y="300.8" width="64.6" height="319.2" fill="#3a3f6e"/><rect x="1163" y="314" width="5" height="8" fill="#ffd88a" opacity="1.0"/><rect x="1163" y="332" width="5" height="8" fill="#ffd88a" opacity="0.7"/><rect x="1177" y="332" width="5" height="8" fill="#ffd88a" opacity="0.9"/><rect x="1177" y="350" width="5" height="8" fill="#ffd88a" opacity="0.8"/><rect x="1177" y="368" width="5" height="8" fill="#ffd88a" opacity="1.0"/><rect x="1163" y="386" width="5" height="8" fill="#ffd88a" opacity="0.7"/><rect x="1177" y="386" width="5" height="8" fill="#ffd88a" opacity="0.6"/><rect x="1163" y="404" width="5" height="8" fill="#ffd88a" opacity="0.8"/><rect x="1135" y="422" width="5" height="8" fill="#ffd88a" opacity="0.8"/><rect x="1177" y="422" width="5" height="8" fill="#ffd88a" opacity="0.9"/><rect x="1163" y="494" width="5" height="8" fill="#ffd88a" opacity="0.5"/><rect x="1135" y="512" width="5" height="8" fill="#ffd88a" opacity="0.7"/><rect x="1135" y="530" width="5" height="8" fill="#ffd88a" opacity="0.6"/><rect x="1149" y="530" width="5" height="8" fill="#ffd88a" opacity="0.6"/><rect x="1135" y="584" width="5" height="8" fill="#ffd88a" opacity="0.8"/><rect x="1163" y="584" width="5" height="8" fill="#ffd88a" opacity="1.0"/><rect x="1163" y="602" width="5" height="8" fill="#ffd88a" opacity="0.9"/><rect x="1177" y="602" width="5" height="8" fill="#ffd88a" opacity="0.5"/><rect x="1191.9" y="314.6" width="44.8" height="305.4" fill="#3a3f6e"/><rect x="1213" y="328" width="5" height="8" fill="#ffd88a" opacity="0.9"/><rect x="1199" y="346" width="5" height="8" fill="#ffd88a" opacity="0.8"/><rect x="1213" y="346" width="5" height="8" fill="#ffd88a" opacity="0.9"/><rect x="1199" y="454" width="5" height="8" fill="#ffd88a" opacity="1.0"/><rect x="1213" y="454" width="5" height="8" fill="#ffd88a" opacity="0.8"/><rect x="1199" y="526" width="5" height="8" fill="#ffd88a" opacity="0.6"/><rect x="1213" y="526" width="5" height="8" fill="#ffd88a" opacity="0.7"/><rect x="1213" y="544" width="5" height="8" fill="#ffd88a" opacity="0.8"/><rect x="1199" y="580" width="5" height="8" fill="#ffd88a" opacity="0.8"/><rect x="1213" y="580" width="5" height="8" fill="#ffd88a" opacity="0.6"/><rect x="1213" y="598" width="5" height="8" fill="#ffd88a" opacity="1.0"/><rect x="1239.2" y="372.7" width="102.3" height="247.3" fill="#3a3f6e"/><rect x="1247" y="386" width="5" height="8" fill="#ffd88a" opacity="0.7"/><rect x="1289" y="386" width="5" height="8" fill="#ffd88a" opacity="0.6"/><rect x="1247" y="422" width="5" height="8" fill="#ffd88a" opacity="0.7"/><rect x="1261" y="422" width="5" height="8" fill="#ffd88a" opacity="0.9"/><rect x="1289" y="422" width="5" height="8" fill="#ffd88a" opacity="0.9"/><rect x="1317" y="422" width="5" height="8" fill="#ffd88a" opacity="1.0"/><rect x="1275" y="440" width="5" height="8" fill="#ffd88a" opacity="0.9"/><rect x="1317" y="440" width="5" height="8" fill="#ffd88a" opacity="0.7"/><rect x="1289" y="458" width="5" height="8" fill="#ffd88a" opacity="0.5"/><rect x="1303" y="458" width="5" height="8" fill="#ffd88a" opacity="0.6"/><rect x="1317" y="458" width="5" height="8" fill="#ffd88a" opacity="0.7"/><rect x="1247" y="476" width="5" height="8" fill="#ffd88a" opacity="0.6"/><rect x="1289" y="476" width="5" height="8" fill="#ffd88a" opacity="0.6"/><rect x="1317" y="476" width="5" height="8" fill="#ffd88a" opacity="0.6"/><rect x="1331" y="476" width="5" height="8" fill="#ffd88a" opacity="0.9"/><rect x="1275" y="494" width="5" height="8" fill="#ffd88a" opacity="0.5"/><rect x="1247" y="512" width="5" height="8" fill="#ffd88a" opacity="0.8"/><rect x="1331" y="512" width="5" height="8" fill="#ffd88a" opacity="0.9"/><rect x="1261" y="530" width="5" height="8" fill="#ffd88a" opacity="0.8"/><rect x="1289" y="530" width="5" height="8" fill="#ffd88a" opacity="0.7"/><rect x="1261" y="548" width="5" height="8" fill="#ffd88a" opacity="0.7"/><rect x="1303" y="548" width="5" height="8" fill="#ffd88a" opacity="0.6"/><rect x="1331" y="548" width="5" height="8" fill="#ffd88a" opacity="0.7"/><rect x="1289" y="566" width="5" height="8" fill="#ffd88a" opacity="0.9"/><rect x="1247" y="584" width="5" height="8" fill="#ffd88a" opacity="0.8"/><rect x="1331" y="584" width="5" height="8" fill="#ffd88a" opacity="0.6"/><rect x="1247" y="602" width="5" height="8" fill="#ffd88a" opacity="0.9"/><rect x="1261" y="602" width="5" height="8" fill="#ffd88a" opacity="0.8"/><rect x="1303" y="602" width="5" height="8" fill="#ffd88a" opacity="0.7"/><rect x="1342.2" y="407.7" width="98.5" height="212.3" fill="#3a3f6e"/><rect x="1350" y="421" width="5" height="8" fill="#ffd88a" opacity="0.9"/><rect x="1364" y="421" width="5" height="8" fill="#ffd88a" opacity="0.6"/><rect x="1392" y="421" width="5" height="8" fill="#ffd88a" opacity="0.7"/><rect x="1420" y="421" width="5" height="8" fill="#ffd88a" opacity="0.8"/><rect x="1350" y="439" width="5" height="8" fill="#ffd88a" opacity="0.6"/><rect x="1406" y="439" width="5" height="8" fill="#ffd88a" opacity="0.9"/><rect x="1420" y="457" width="5" height="8" fill="#ffd88a" opacity="0.6"/><rect x="1378" y="493" width="5" height="8" fill="#ffd88a" opacity="0.7"/><rect x="1392" y="493" width="5" height="8" fill="#ffd88a" opacity="0.7"/><rect x="1420" y="493" width="5" height="8" fill="#ffd88a" opacity="0.8"/><rect x="1406" y="511" width="5" height="8" fill="#ffd88a" opacity="0.5"/><rect x="1420" y="511" width="5" height="8" fill="#ffd88a" opacity="1.0"/><rect x="1364" y="529" width="5" height="8" fill="#ffd88a" opacity="0.9"/><rect x="1392" y="529" width="5" height="8" fill="#ffd88a" opacity="0.6"/><rect x="1378" y="547" width="5" height="8" fill="#ffd88a" opacity="0.6"/><rect x="1392" y="547" width="5" height="8" fill="#ffd88a" opacity="0.9"/><rect x="1378" y="565" width="5" height="8" fill="#ffd88a" opacity="0.7"/><rect x="1364" y="583" width="5" height="8" fill="#ffd88a" opacity="0.8"/><rect x="1378" y="583" width="5" height="8" fill="#ffd88a" opacity="0.6"/><rect x="1406" y="583" width="5" height="8" fill="#ffd88a" opacity="0.8"/><rect x="1443.8" y="207.0" width="82.4" height="413.0" fill="#3a3f6e"/><rect x="1451" y="221" width="5" height="8" fill="#ffd88a" opacity="0.9"/><rect x="1493" y="221" width="5" height="8" fill="#ffd88a" opacity="0.6"/><rect x="1465" y="239" width="5" height="8" fill="#ffd88a" opacity="0.7"/><rect x="1479" y="239" width="5" height="8" fill="#ffd88a" opacity="0.7"/><rect x="1493" y="239" width="5" height="8" fill="#ffd88a" opacity="0.7"/><rect x="1507" y="239" width="5" height="8" fill="#ffd88a" opacity="0.9"/><rect x="1451" y="275" width="5" height="8" fill="#ffd88a" opacity="0.6"/><rect x="1465" y="275" width="5" height="8" fill="#ffd88a" opacity="0.8"/><rect x="1479" y="275" width="5" height="8" fill="#ffd88a" opacity="0.6"/><rect x="1493" y="275" width="5" height="8" fill="#ffd88a" opacity="0.7"/><rect x="1465" y="293" width="5" height="8" fill="#ffd88a" opacity="0.9"/><rect x="1465" y="329" width="5" height="8" fill="#ffd88a" opacity="1.0"/><rect x="1451" y="347" width="5" height="8" fill="#ffd88a" opacity="1.0"/><rect x="1493" y="347" width="5" height="8" fill="#ffd88a" opacity="0.9"/><rect x="1479" y="365" width="5" height="8" fill="#ffd88a" opacity="0.9"/><rect x="1465" y="383" width="5" height="8" fill="#ffd88a" opacity="1.0"/><rect x="1507" y="383" width="5" height="8" fill="#ffd88a" opacity="0.7"/><rect x="1493" y="401" width="5" height="8" fill="#ffd88a" opacity="0.7"/><rect x="1507" y="401" width="5" height="8" fill="#ffd88a" opacity="0.9"/><rect x="1465" y="419" width="5" height="8" fill="#ffd88a" opacity="0.9"/><rect x="1479" y="419" width="5" height="8" fill="#ffd88a" opacity="0.7"/><rect x="1507" y="419" width="5" height="8" fill="#ffd88a" opacity="0.6"/><rect x="1465" y="437" width="5" height="8" fill="#ffd88a" opacity="0.6"/><rect x="1479" y="437" width="5" height="8" fill="#ffd88a" opacity="0.7"/><rect x="1507" y="437" width="5" height="8" fill="#ffd88a" opacity="0.7"/><rect x="1465" y="455" width="5" height="8" fill="#ffd88a" opacity="0.7"/><rect x="1479" y="473" width="5" height="8" fill="#ffd88a" opacity="0.8"/><rect x="1465" y="491" width="5" height="8" fill="#ffd88a" opacity="0.7"/><rect x="1493" y="491" width="5" height="8" fill="#ffd88a" opacity="0.5"/><rect x="1479" y="509" width="5" height="8" fill="#ffd88a" opacity="0.7"/><rect x="1465" y="527" width="5" height="8" fill="#ffd88a" opacity="0.5"/><rect x="1451" y="545" width="5" height="8" fill="#ffd88a" opacity="0.7"/><rect x="1479" y="563" width="5" height="8" fill="#ffd88a" opacity="0.8"/><rect x="1479" y="581" width="5" height="8" fill="#ffd88a" opacity="0.8"/><rect x="1451" y="599" width="5" height="8" fill="#ffd88a" opacity="0.8"/><rect x="1507" y="599" width="5" height="8" fill="#ffd88a" opacity="0.7"/><rect x="1528.2" y="317.5" width="96.9" height="302.5" fill="#3a3f6e"/><rect x="1552.2" y="281.1" width="47.9" height="37.3" fill="#3a3f6e"/><rect x="1606" y="349" width="5" height="8" fill="#ffd88a" opacity="0.8"/><rect x="1536" y="367" width="5" height="8" fill="#ffd88a" opacity="0.7"/><rect x="1564" y="385" width="5" height="8" fill="#ffd88a" opacity="0.9"/><rect x="1592" y="385" width="5" height="8" fill="#ffd88a" opacity="0.8"/><rect x="1550" y="403" width="5" height="8" fill="#ffd88a" opacity="0.9"/><rect x="1592" y="403" width="5" height="8" fill="#ffd88a" opacity="0.9"/><rect x="1592" y="439" width="5" height="8" fill="#ffd88a" opacity="0.7"/><rect x="1578" y="457" width="5" height="8" fill="#ffd88a" opacity="0.6"/><rect x="1578" y="475" width="5" height="8" fill="#ffd88a" opacity="0.6"/><rect x="1606" y="475" width="5" height="8" fill="#ffd88a" opacity="0.6"/><rect x="1536" y="493" width="5" height="8" fill="#ffd88a" opacity="0.8"/><rect x="1564" y="511" width="5" height="8" fill="#ffd88a" opacity="0.8"/><rect x="1578" y="511" width="5" height="8" fill="#ffd88a" opacity="0.9"/><rect x="1606" y="511" width="5" height="8" fill="#ffd88a" opacity="0.7"/><rect x="1564" y="529" width="5" height="8" fill="#ffd88a" opacity="0.8"/><rect x="1606" y="529" width="5" height="8" fill="#ffd88a" opacity="1.0"/><rect x="1550" y="547" width="5" height="8" fill="#ffd88a" opacity="0.7"/><rect x="1564" y="547" width="5" height="8" fill="#ffd88a" opacity="0.9"/><rect x="1536" y="565" width="5" height="8" fill="#ffd88a" opacity="0.6"/><rect x="1564" y="565" width="5" height="8" fill="#ffd88a" opacity="0.9"/><rect x="1578" y="565" width="5" height="8" fill="#ffd88a" opacity="1.0"/><rect x="1536" y="583" width="5" height="8" fill="#ffd88a" opacity="1.0"/><rect x="1564" y="583" width="5" height="8" fill="#ffd88a" opacity="0.6"/><rect x="1578" y="583" width="5" height="8" fill="#ffd88a" opacity="0.8"/><rect x="1606" y="583" width="5" height="8" fill="#ffd88a" opacity="0.8"/><rect x="1536" y="601" width="5" height="8" fill="#ffd88a" opacity="1.0"/><path d="M-40.0 649.4 L-26.9 650.5 L-13.8 652.0 L-0.6 653.0 L12.5 654.8 L25.6 655.8 L38.8 656.8 L51.9 657.2 L65.0 658.2 L78.1 658.9 L91.2 658.4 L104.4 659.2 L117.5 659.8 L130.6 659.2 L143.8 659.8 L156.9 659.7 L170.0 658.4 L183.1 657.8 L196.2 657.0 L209.4 656.6 L222.5 657.4 L235.6 657.9 L248.8 658.8 L261.9 658.1 L275.0 658.4 L288.1 659.5 L301.2 660.6 L314.4 661.5 L327.5 661.8 L340.6 662.9 L353.8 663.6 L366.9 665.2 L380.0 666.4 L393.1 666.8 L406.2 666.8 L419.4 667.7 L432.5 669.1 L445.6 669.9 L458.8 670.1 L471.9 669.7 L485.0 669.9 L498.1 669.8 L511.2 669.7 L524.4 669.5 L537.5 669.6 L550.6 669.6 L563.8 669.8 L576.9 668.9 L590.0 668.7 L603.1 670.6 L616.2 671.4 L629.4 671.0 L642.5 671.9 L655.6 672.7 L668.8 674.2 L681.9 676.2 L695.0 677.8 L708.1 678.4 L721.2 678.4 L734.4 677.8 L747.5 677.8 L760.6 677.5 L773.8 678.0 L786.9 677.7 L800.0 677.2 L813.1 675.3 L826.2 674.6 L839.4 674.7 L852.5 673.8 L865.6 671.2 L878.8 669.8 L891.9 669.1 L905.0 667.5 L918.1 667.0 L931.2 666.0 L944.4 664.8 L957.5 662.8 L970.6 661.3 L983.8 658.8 L996.9 656.0 L1010.0 653.8 L1023.1 654.4 L1036.2 654.1 L1049.4 654.7 L1062.5 654.2 L1075.6 654.3 L1088.8 654.3 L1101.9 654.2 L1115.0 654.9 L1128.1 654.0 L1141.2 653.3 L1154.4 652.3 L1167.5 651.4 L1180.6 650.2 L1193.8 649.9 L1206.9 650.0 L1220.0 649.7 L1233.1 648.2 L1246.2 647.6 L1259.4 646.7 L1272.5 646.1 L1285.6 645.7 L1298.8 646.5 L1311.9 646.5 L1325.0 645.5 L1338.1 645.1 L1351.2 645.5 L1364.4 645.6 L1377.5 646.0 L1390.6 645.1 L1403.8 644.8 L1416.9 645.6 L1430.0 646.1 L1443.1 645.9 L1456.2 645.1 L1469.4 646.2 L1482.5 646.5 L1495.6 645.8 L1508.8 644.6 L1521.9 643.8 L1535.0 642.9 L1548.1 642.2 L1561.2 640.6 L1574.4 639.1 L1587.5 638.8 L1600.6 638.4 L1613.8 638.0 L1626.9 637.4 L1640.0 636.7 L1640.0 1005.0 L-40.0 1005.0Z" fill="#2f3560" opacity="1"/><rect x="60" y="580" width="130" height="180" fill="#f3e3c3"/><path d="M50.0 580.0 L125.0 490.0 L200.0 580.0Z" fill="#8e3b2e"/><path d="M60 580 L190 580 M125.0 580 L125.0 760 M60 580 L125.0 640 M190 580 L125.0 640" stroke="#5b3a26" stroke-width="6"/><path d="M60 640 L190 640 M125.0 580 L125.0 760 M60 640 L125.0 700 M190 640 L125.0 700" stroke="#5b3a26" stroke-width="6"/><path d="M60 700 L190 700 M125.0 580 L125.0 760 M60 700 L125.0 760 M190 700 L125.0 760" stroke="#5b3a26" stroke-width="6"/><rect x="78" y="600" width="26" height="26" fill="#ffd88a"/><rect x="146" y="600" width="26" height="26" fill="#ffd88a"/><rect x="78" y="660" width="26" height="26" fill="#ffd88a"/><rect x="146" y="660" width="26" height="26" fill="#ffd88a"/><rect x="202" y="540" width="130" height="220" fill="#f3e3c3"/><path d="M192.0 540.0 L267.0 450.0 L342.0 540.0Z" fill="#8e3b2e"/><path d="M202 540 L332 540 M267.0 540 L267.0 760 M202 540 L267.0 600 M332 540 L267.0 600" stroke="#5b3a26" stroke-width="6"/><path d="M202 600 L332 600 M267.0 540 L267.0 760 M202 600 L267.0 660 M332 600 L267.0 660" stroke="#5b3a26" stroke-width="6"/><path d="M202 660 L332 660 M267.0 540 L267.0 760 M202 660 L267.0 720 M332 660 L267.0 720" stroke="#5b3a26" stroke-width="6"/><rect x="220" y="560" width="26" height="26" fill="#ffd88a"/><rect x="288" y="560" width="26" height="26" fill="#ffd88a"/><rect x="220" y="620" width="26" height="26" fill="#ffd88a"/><rect x="288" y="620" width="26" height="26" fill="#ffd88a"/><rect x="344" y="580" width="130" height="180" fill="#f3e3c3"/><path d="M334.0 580.0 L409.0 490.0 L484.0 580.0Z" fill="#8e3b2e"/><path d="M344 580 L474 580 M409.0 580 L409.0 760 M344 580 L409.0 640 M474 580 L409.0 640" stroke="#5b3a26" stroke-width="6"/><path d="M344 640 L474 640 M409.0 580 L409.0 760 M344 640 L409.0 700 M474 640 L409.0 700" stroke="#5b3a26" stroke-width="6"/><path d="M344 700 L474 700 M409.0 580 L409.0 760 M344 700 L409.0 760 M474 700 L409.0 760" stroke="#5b3a26" stroke-width="6"/><rect x="362" y="600" width="26" height="26" fill="#ffd88a"/><rect x="430" y="600" width="26" height="26" fill="#ffd88a"/><rect x="362" y="660" width="26" height="26" fill="#ffd88a"/><rect x="430" y="660" width="26" height="26" fill="#ffd88a"/><rect x="486" y="540" width="130" height="220" fill="#f3e3c3"/><path d="M476.0 540.0 L551.0 450.0 L626.0 540.0Z" fill="#8e3b2e"/><path d="M486 540 L616 540 M551.0 540 L551.0 760 M486 540 L551.0 600 M616 540 L551.0 600" stroke="#5b3a26" stroke-width="6"/><path d="M486 600 L616 600 M551.0 540 L551.0 760 M486 600 L551.0 660 M616 600 L551.0 660" stroke="#5b3a26" stroke-width="6"/><path d="M486 660 L616 660 M551.0 540 L551.0 760 M486 660 L551.0 720 M616 660 L551.0 720" stroke="#5b3a26" stroke-width="6"/><rect x="504" y="560" width="26" height="26" fill="#ffd88a"/><rect x="572" y="560" width="26" height="26" fill="#ffd88a"/><rect x="504" y="620" width="26" height="26" fill="#ffd88a"/><rect x="572" y="620" width="26" height="26" fill="#ffd88a"/><rect x="628" y="580" width="130" height="180" fill="#f3e3c3"/><path d="M618.0 580.0 L693.0 490.0 L768.0 580.0Z" fill="#8e3b2e"/><path d="M628 580 L758 580 M693.0 580 L693.0 760 M628 580 L693.0 640 M758 580 L693.0 640" stroke="#5b3a26" stroke-width="6"/><path d="M628 640 L758 640 M693.0 580 L693.0 760 M628 640 L693.0 700 M758 640 L693.0 700" stroke="#5b3a26" stroke-width="6"/><path d="M628 700 L758 700 M693.0 580 L693.0 760 M628 700 L693.0 760 M758 700 L693.0 760" stroke="#5b3a26" stroke-width="6"/><rect x="646" y="600" width="26" height="26" fill="#ffd88a"/><rect x="714" y="600" width="26" height="26" fill="#ffd88a"/><rect x="646" y="660" width="26" height="26" fill="#ffd88a"/><rect x="714" y="660" width="26" height="26" fill="#ffd88a"/><rect x="770" y="540" width="130" height="220" fill="#f3e3c3"/><path d="M760.0 540.0 L835.0 450.0 L910.0 540.0Z" fill="#8e3b2e"/><path d="M770 540 L900 540 M835.0 540 L835.0 760 M770 540 L835.0 600 M900 540 L835.0 600" stroke="#5b3a26" stroke-width="6"/><path d="M770 600 L900 600 M835.0 540 L835.0 760 M770 600 L835.0 660 M900 600 L835.0 660" stroke="#5b3a26" stroke-width="6"/><path d="M770 660 L900 660 M835.0 540 L835.0 760 M770 660 L835.0 720 M900 660 L835.0 720" stroke="#5b3a26" stroke-width="6"/><rect x="788" y="560" width="26" height="26" fill="#ffd88a"/><rect x="856" y="560" width="26" height="26" fill="#ffd88a"/><rect x="788" y="620" width="26" height="26" fill="#ffd88a"/><rect x="856" y="620" width="26" height="26" fill="#ffd88a"/><rect x="912" y="580" width="130" height="180" fill="#f3e3c3"/><path d="M902.0 580.0 L977.0 490.0 L1052.0 580.0Z" fill="#8e3b2e"/><path d="M912 580 L1042 580 M977.0 580 L977.0 760 M912 580 L977.0 640 M1042 580 L977.0 640" stroke="#5b3a26" stroke-width="6"/><path d="M912 640 L1042 640 M977.0 580 L977.0 760 M912 640 L977.0 700 M1042 640 L977.0 700" stroke="#5b3a26" stroke-width="6"/><path d="M912 700 L1042 700 M977.0 580 L977.0 760 M912 700 L977.0 760 M1042 700 L977.0 760" stroke="#5b3a26" stroke-width="6"/><rect x="930" y="600" width="26" height="26" fill="#ffd88a"/><rect x="998" y="600" width="26" height="26" fill="#ffd88a"/><rect x="930" y="660" width="26" height="26" fill="#ffd88a"/><rect x="998" y="660" width="26" height="26" fill="#ffd88a"/><rect x="0" y="760" width="1600" height="240" fill="url(#alelg3)"/><rect x="717.8" y="904.8" width="207.3" height="3.3" rx="2" fill="#ffd88a" opacity="0.2"/><rect x="1415.0" y="883.8" width="110.0" height="3.0" rx="2" fill="#ffd88a" opacity="0.1"/><rect x="940.1" y="882.5" width="45.8" height="3.0" rx="2" fill="#ffd88a" opacity="0.1"/><rect x="164.7" y="883.1" width="95.9" height="3.0" rx="2" fill="#ffd88a" opacity="0.2"/><rect x="58.3" y="823.7" width="103.6" height="2.3" rx="2" fill="#ffd88a" opacity="0.2"/><rect x="358.7" y="969.1" width="228.7" height="4.1" rx="2" fill="#ffd88a" opacity="0.2"/><rect x="605.3" y="799.0" width="94.0" height="2.0" rx="2" fill="#ffd88a" opacity="0.2"/><rect x="1223.7" y="983.7" width="288.6" height="4.3" rx="2" fill="#ffd88a" opacity="0.3"/><rect x="710.0" y="798.1" width="99.0" height="2.0" rx="2" fill="#ffd88a" opacity="0.1"/><rect x="1145.1" y="840.5" width="144.2" height="2.5" rx="2" fill="#ffd88a" opacity="0.2"/><rect x="115.3" y="859.0" width="158.2" height="2.7" rx="2" fill="#ffd88a" opacity="0.3"/><rect x="1439.6" y="868.2" width="170.2" height="2.9" rx="2" fill="#ffd88a" opacity="0.2"/><rect x="1303.3" y="779.5" width="66.3" height="1.7" rx="2" fill="#ffd88a" opacity="0.2"/><rect x="1588.1" y="961.7" width="167.6" height="4.0" rx="2" fill="#ffd88a" opacity="0.3"/><rect x="822.8" y="825.0" width="36.3" height="2.3" rx="2" fill="#ffd88a" opacity="0.2"/><rect x="15.6" y="827.5" width="69.6" height="2.3" rx="2" fill="#ffd88a" opacity="0.3"/><rect x="910.0" y="777.8" width="78.8" height="1.7" rx="2" fill="#ffd88a" opacity="0.2"/><rect x="1070.5" y="819.7" width="53.3" height="2.2" rx="2" fill="#ffd88a" opacity="0.2"/><rect x="1136.3" y="991.6" width="128.3" height="4.4" rx="2" fill="#ffd88a" opacity="0.2"/><rect x="868.7" y="921.5" width="126.6" height="3.5" rx="2" fill="#ffd88a" opacity="0.2"/><rect x="910.2" y="810.3" width="35.9" height="2.1" rx="2" fill="#ffd88a" opacity="0.3"/><rect x="96.7" y="937.7" width="165.0" height="3.7" rx="2" fill="#ffd88a" opacity="0.3"/><rect x="14.2" y="871.2" width="41.7" height="2.9" rx="2" fill="#ffd88a" opacity="0.3"/><rect x="505.1" y="794.7" width="111.6" height="1.9" rx="2" fill="#ffd88a" opacity="0.3"/><rect x="1074.2" y="839.1" width="124.4" height="2.5" rx="2" fill="#ffd88a" opacity="0.2"/><rect x="23.1" y="956.6" width="240.0" height="4.0" rx="2" fill="#ffd88a" opacity="0.2"/><rect x="1280.1" y="995.8" width="106.9" height="4.4" rx="2" fill="#ffd88a" opacity="0.2"/><rect x="940.9" y="811.4" width="132.5" height="2.1" rx="2" fill="#ffd88a" opacity="0.3"/><rect x="1229.3" y="897.6" width="143.3" height="3.2" rx="2" fill="#ffd88a" opacity="0.2"/><rect x="1360.1" y="866.1" width="94.9" height="2.8" rx="2" fill="#ffd88a" opacity="0.2"/><rect x="1028.1" y="769.9" width="66.7" height="1.6" rx="2" fill="#ffd88a" opacity="0.2"/><rect x="212.1" y="944.6" width="204.9" height="3.8" rx="2" fill="#ffd88a" opacity="0.3"/><rect x="685.6" y="881.8" width="190.4" height="3.0" rx="2" fill="#ffd88a" opacity="0.2"/><rect x="449.1" y="899.1" width="205.6" height="3.2" rx="2" fill="#ffd88a" opacity="0.2"/><rect x="838.3" y="857.7" width="161.4" height="2.7" rx="2" fill="#ffd88a" opacity="0.2"/><rect x="312.8" y="936.5" width="39.3" height="3.7" rx="2" fill="#ffd88a" opacity="0.2"/><rect x="33.4" y="822.5" width="104.8" height="2.3" rx="2" fill="#ffd88a" opacity="0.3"/><rect x="170.0" y="989.7" width="255.7" height="4.4" rx="2" fill="#ffd88a" opacity="0.2"/><rect x="1214.8" y="996.3" width="284.0" height="4.5" rx="2" fill="#ffd88a" opacity="0.2"/><rect x="1392.2" y="907.2" width="196.4" height="3.3" rx="2" fill="#ffd88a" opacity="0.2"/><rect x="118.1" y="854.6" width="61.6" height="2.7" rx="2" fill="#ffd88a" opacity="0.2"/><rect x="1032.2" y="982.3" width="109.6" height="4.3" rx="2" fill="#ffd88a" opacity="0.1"/><rect x="25.9" y="797.0" width="51.8" height="2.0" rx="2" fill="#ffd88a" opacity="0.3"/><rect x="721.8" y="851.6" width="150.1" height="2.6" rx="2" fill="#ffd88a" opacity="0.2"/><rect x="1565.0" y="955.0" width="143.4" height="3.9" rx="2" fill="#ffd88a" opacity="0.2"/><rect x="98.4" y="782.2" width="63.0" height="1.8" rx="2" fill="#ffd88a" opacity="0.2"/><rect x="183.7" y="904.7" width="65.1" height="3.3" rx="2" fill="#ffd88a" opacity="0.2"/><rect x="73.3" y="813.3" width="61.4" height="2.2" rx="2" fill="#ffd88a" opacity="0.3"/><rect x="398.8" y="995.5" width="284.5" height="4.4" rx="2" fill="#ffd88a" opacity="0.3"/><rect x="1078.7" y="946.3" width="111.9" height="3.8" rx="2" fill="#ffd88a" opacity="0.2"/><rect x="0" y="800" width="1600" height="26" fill="#2a2e55"/><path d="M0 826 Q105 740 210 826" fill="none" stroke="#2a2e55" stroke-width="16"/><path d="M210 826 Q315 740 420 826" fill="none" stroke="#2a2e55" stroke-width="16"/><path d="M420 826 Q525 740 630 826" fill="none" stroke="#2a2e55" stroke-width="16"/><path d="M630 826 Q735 740 840 826" fill="none" stroke="#2a2e55" stroke-width="16"/><path d="M840 826 Q945 740 1050 826" fill="none" stroke="#2a2e55" stroke-width="16"/><path d="M1050 826 Q1155 740 1260 826" fill="none" stroke="#2a2e55" stroke-width="16"/><path d="M1260 826 Q1365 740 1470 826" fill="none" stroke="#2a2e55" stroke-width="16"/><path d="M1470 826 Q1575 740 1680 826" fill="none" stroke="#2a2e55" stroke-width="16"/><circle cx="30" cy="790" r="5" fill="#ffd88a"/><circle cx="150" cy="790" r="5" fill="#ffd88a"/><circle cx="270" cy="790" r="5" fill="#ffd88a"/><circle cx="390" cy="790" r="5" fill="#ffd88a"/><circle cx="510" cy="790" r="5" fill="#ffd88a"/><circle cx="630" cy="790" r="5" fill="#ffd88a"/><circle cx="750" cy="790" r="5" fill="#ffd88a"/><circle cx="870" cy="790" r="5" fill="#ffd88a"/><circle cx="990" cy="790" r="5" fill="#ffd88a"/><circle cx="1110" cy="790" r="5" fill="#ffd88a"/><circle cx="1230" cy="790" r="5" fill="#ffd88a"/><circle cx="1350" cy="790" r="5" fill="#ffd88a"/><circle cx="1470" cy="790" r="5" fill="#ffd88a"/><circle cx="1590" cy="790" r="5" fill="#ffd88a"/><rect width="1600" height="1000" filter="url(#alefl4)" opacity="0.07"/></svg>