<svg xmlns="http://www.w3.org/2000/svg" viewBox="0 0 1600 1000" preserveAspectRatio="xMidYMid slice"><defs><linearGradient id="canlg1" x1="0" y1="0" x2="0" y2="1"><stop offset="0" stop-color="#40b6d8"/><stop offset="1" stop-color="#bfeaf2"/></linearGradient><radialGradient id="canrg2" cx="0.5" cy="0.5" r="0.5"><stop offset="0" stop-color="#ffffff" stop-opacity="0.55"/><stop offset="1" stop-color="#ffffff" stop-opacity="0"/></radialGradient><linearGradient id="canlg3" x1="0" y1="0" x2="0" y2="1"><stop offset="0" stop-color="#1fb3c2"/><stop offset="1" stop-color="#0b6f94"/></linearGradient><filter id="canfl4"><feTurbulence type="fractalNoise" baseFrequency=".8" numOctaves="2" stitchTiles="stitch"/><feColorMatrix values="0 0 0 0 0  0 0 0 0 0  0 0 0 0 0  0 0 0 .9 0"/></filter></defs><rect width="1600" height="1000" fill="url(#canlg1)"/><circle cx="250" cy="170" r="192.0" fill="url(#canrg2)"/><circle cx="250" cy="170" r="60" fill="#fff9dc" opacity="1"/><g fill="#fff" opacity="0.9"><ellipse cx="1250.0" cy="190.0" rx="99.0" ry="30.8"/><ellipse cx="1195.0" cy="198.8" rx="66.0" ry="22.0"/><ellipse cx="1310.5" cy="196.6" rx="77.0" ry="24.2"/><ellipse cx="1261.0" cy="170.2" rx="55.0" ry="28.6"/></g><rect x="0" y="560" width="1600" height="440" fill="url(#canlg3)"/><rect x="1078.7" y="679.9" width="107.7" height="2.3" rx="2" fill="#e9ffff" opacity="0.3"/><rect x="192.8" y="648.2" width="44.3" height="2.1" rx="2" fill="#e9ffff" opacity="0.2"/><rect x="826.7" y="885.1" width="62.3" height="3.7" rx="2" fill="#e9ffff" opacity="0.2"/><rect x="1332.1" y="695.3" width="79.2" height="2.4" rx="2" fill="#e9ffff" opacity="0.3"/><rect x="192.1" y="574.2" width="35.6" height="1.6" rx="2" fill="#e9ffff" opacity="0.3"/><rect x="1313.5" y="917.8" width="222.2" height="3.9" rx="2" fill="#e9ffff" opacity="0.3"/><rect x="373.6" y="978.1" width="244.1" height="4.4" rx="2" fill="#e9ffff" opacity="0.3"/><rect x="880.8" y="778.3" width="155.4" height="3.0" rx="2" fill="#e9ffff" opacity="0.2"/><rect x="467.7" y="725.3" width="86.6" height="2.6" rx="2" fill="#e9ffff" opacity="0.2"/><rect x="1576.4" y="922.1" width="222.2" height="4.0" rx="2" fill="#e9ffff" opacity="0.3"/><rect x="172.5" y="807.4" width="165.7" height="3.2" rx="2" fill="#e9ffff" opacity="0.3"/><rect x="284.3" y="759.5" width="54.3" height="2.9" rx="2" fill="#e9ffff" opacity="0.2"/><rect x="949.1" y="677.4" width="78.2" height="2.3" rx="2" fill="#e9ffff" opacity="0.2"/><rect x="338.5" y="624.5" width="67.4" height="1.9" rx="2" fill="#e9ffff" opacity="0.2"/><rect x="70.9" y="652.0" width="60.7" height="2.1" rx="2" fill="#e9ffff" opacity="0.3"/><rect x="1136.2" y="980.0" width="140.9" height="4.4" rx="2" fill="#e9ffff" opacity="0.3"/><rect x="1280.1" y="586.7" width="26.2" height="1.7" rx="2" fill="#e9ffff" opacity="0.3"/><rect x="632.3" y="844.1" width="63.1" height="3.4" rx="2" fill="#e9ffff" opacity="0.3"/><rect x="285.0" y="950.8" width="235.2" height="4.2" rx="2" fill="#e9ffff" opacity="0.3"/><rect x="176.1" y="729.9" width="130.6" height="2.7" rx="2" fill="#e9ffff" opacity="0.3"/><rect x="299.3" y="828.7" width="169.1" height="3.3" rx="2" fill="#e9ffff" opacity="0.3"/><rect x="542.9" y="818.9" width="140.7" height="3.3" rx="2" fill="#e9ffff" opacity="0.3"/><rect x="221.4" y="715.5" width="64.9" height="2.6" rx="2" fill="#e9ffff" opacity="0.3"/><rect x="64.1" y="616.5" width="38.5" height="1.9" rx="2" fill="#e9ffff" opacity="0.3"/><rect x="14.1" y="808.3" width="128.5" height="3.2" rx="2" fill="#e9ffff" opacity="0.2"/><rect x="-45.1" y="716.2" width="35.9" height="2.6" rx="2" fill="#e9ffff" opacity="0.3"/><rect x="393.8" y="620.5" width="46.9" height="1.9" rx="2" fill="#e9ffff" opacity="0.3"/><rect x="555.1" y="601.4" width="58.9" height="1.8" rx="2" fill="#e9ffff" opacity="0.3"/><rect x="769.3" y="570.5" width="39.7" height="1.6" rx="2" fill="#e9ffff" opacity="0.3"/><rect x="1054.7" y="791.2" width="111.2" height="3.1" rx="2" fill="#e9ffff" opacity="0.2"/><rect x="1452.2" y="581.7" width="56.3" height="1.6" rx="2" fill="#e9ffff" opacity="0.3"/><rect x="1351.0" y="679.6" width="107.5" height="2.3" rx="2" fill="#e9ffff" opacity="0.2"/><rect x="353.0" y="822.0" width="97.1" height="3.3" rx="2" fill="#e9ffff" opacity="0.2"/><rect x="12.9" y="656.1" width="59.8" height="2.2" rx="2" fill="#e9ffff" opacity="0.2"/><rect x="939.7" y="605.5" width="87.6" height="1.8" rx="2" fill="#e9ffff" opacity="0.1"/><rect x="743.2" y="902.3" width="78.0" height="3.8" rx="2" fill="#e9ffff" opacity="0.3"/><rect x="667.7" y="711.8" width="63.3" height="2.5" rx="2" fill="#e9ffff" opacity="0.2"/><rect x="1308.8" y="941.1" width="64.9" height="4.1" rx="2" fill="#e9ffff" opacity="0.2"/><rect x="5.1" y="699.0" width="74.3" height="2.4" rx="2" fill="#e9ffff" opacity="0.2"/><rect x="1396.1" y="724.0" width="88.0" height="2.6" rx="2" fill="#e9ffff" opacity="0.3"/><rect x="163.4" y="586.8" width="60.7" height="1.7" rx="2" fill="#e9ffff" opacity="0.3"/><rect x="849.9" y="707.4" width="146.7" height="2.5" rx="2" fill="#e9ffff" opacity="0.2"/><rect x="1382.3" y="570.1" width="32.6" height="1.6" rx="2" fill="#e9ffff" opacity="0.2"/><rect x="519.2" y="774.9" width="89.4" height="3.0" rx="2" fill="#e9ffff" opacity="0.3"/><rect x="1049.9" y="660.3" width="104.6" height="2.2" rx="2" fill="#e9ffff" opacity="0.3"/><rect x="676.9" y="792.6" width="190.3" height="3.1" rx="2" fill="#e9ffff" opacity="0.3"/><rect x="1431.0" y="836.1" width="194.7" height="3.4" rx="2" fill="#e9ffff" opacity="0.2"/><rect x="1290.5" y="627.3" width="72.7" height="2.0" rx="2" fill="#e9ffff" opacity="0.3"/><rect x="441.5" y="697.4" width="151.5" height="2.4" rx="2" fill="#e9ffff" opacity="0.2"/><rect x="1149.4" y="590.5" width="16.8" height="1.7" rx="2" fill="#e9ffff" opacity="0.2"/><path d="M-40.0 640.0 C33.3 633.3 243.3 601.7 400.0 600.0 C556.7 598.3 750.0 630.0 900.0 630.0 C1050.0 630.0 1175.0 598.3 1300.0 600.0 C1425.0 601.7 1591.7 633.3 1650.0 640.0 L1650.0 1005 L-40.0 1005Z" fill="#6f9a5c"/><rect x="720.0" y="618.6" width="520.0" height="32.4" fill="#c9a37a"/><rect x="740.8" y="587.1" width="478.4" height="32.4" fill="#a9825e"/><rect x="761.6" y="555.7" width="436.8" height="32.4" fill="#c9a37a"/><rect x="782.4" y="524.3" width="395.2" height="32.4" fill="#a9825e"/><rect x="803.2" y="492.9" width="353.6" height="32.4" fill="#c9a37a"/><rect x="824.0" y="461.4" width="312.0" height="32.4" fill="#a9825e"/><rect x="844.8" y="430.0" width="270.4" height="32.4" fill="#c9a37a"/><rect x="865.6" y="398.6" width="228.8" height="32.4" fill="#a9825e"/><rect x="886.4" y="367.1" width="187.2" height="32.4" fill="#c9a37a"/><rect x="928.0" y="320.0" width="104.0" height="50.3" fill="#a9825e"/><rect x="961.3" y="332.6" width="37.4" height="34.6" fill="#ffe8c2" opacity=".7"/><path d="M943.6 650.0 L965.4 367.1 L994.6 367.1 L1016.4 650.0Z" fill="#a9825e"/><path d="M-40.0 760.0 C50.0 756.7 326.7 736.7 500.0 740.0 C673.3 743.3 808.3 778.3 1000.0 780.0 C1191.7 781.7 1541.7 755.0 1650.0 750.0 L1650.0 1005 L-40.0 1005Z" fill="#f7e2b8"/><path d="M193 800 Q216.0 640.0 277.0 480.0 L283.0 480.0 Q226.0 640.0 207 800Z" fill="#1e4b3a"/><path d="M280.0 480.0 Q195.2 418.8 106.2 519.7 Q191.0 452.3 280.0 480.0Z" fill="#1e4b3a"/><path d="M280.0 480.0 Q223.8 372.3 154.9 473.6 Q211.1 401.1 280.0 480.0Z" fill="#1e4b3a"/><path d="M280.0 480.0 Q249.1 361.7 202.3 457.4 Q233.2 386.1 280.0 480.0Z" fill="#1e4b3a"/><path d="M280.0 480.0 Q296.9 352.1 295.9 446.2 Q279.0 366.4 280.0 480.0Z" fill="#1e4b3a"/><path d="M280.0 480.0 Q322.6 361.2 348.6 453.1 Q306.1 370.1 280.0 480.0Z" fill="#1e4b3a"/><path d="M280.0 480.0 Q341.1 401.2 390.0 476.3 Q328.9 404.0 280.0 480.0Z" fill="#1e4b3a"/><path d="M280.0 480.0 Q359.5 460.5 438.4 532.3 Q358.9 458.6 280.0 480.0Z" fill="#1e4b3a"/><path d="M1443 820 Q1438.0 670.0 1387.0 520.0 L1393.0 520.0 Q1448.0 670.0 1457 820Z" fill="#1e4b3a"/><path d="M1390.0 520.0 Q1309.6 474.7 1227.3 567.4 Q1307.7 508.6 1390.0 520.0Z" fill="#1e4b3a"/><path d="M1390.0 520.0 Q1344.1 447.2 1287.8 523.5 Q1333.6 477.8 1390.0 520.0Z" fill="#1e4b3a"/><path d="M1390.0 520.0 Q1358.5 423.6 1312.2 505.5 Q1343.7 449.7 1390.0 520.0Z" fill="#1e4b3a"/><path d="M1390.0 520.0 Q1395.0 390.6 1382.0 485.9 Q1377.0 407.4 1390.0 520.0Z" fill="#1e4b3a"/><path d="M1390.0 520.0 Q1430.4 405.1 1454.2 493.7 Q1413.8 414.1 1390.0 520.0Z" fill="#1e4b3a"/><path d="M1390.0 520.0 Q1457.2 459.1 1515.1 529.7 Q1447.9 459.6 1390.0 520.0Z" fill="#1e4b3a"/><path d="M1390.0 520.0 Q1471.6 499.9 1552.5 573.6 Q1470.9 497.9 1390.0 520.0Z" fill="#1e4b3a"/><rect width="1600" height="1000" filter="url(#canfl4)" opacity="0.07"/></svg>