<svg xmlns="http://www.w3.org/2000/svg" viewBox="0 0 1600 1000" preserveAspectRatio="xMidYMid slice"><defs><linearGradient id="ccalg1" x1="0" y1="0" x2="0" y2="1"><stop offset="0" stop-color="#2fb0d8"/><stop offset="1" stop-color="#c8f1f7"/></linearGradient><radialGradient id="ccarg2" cx="0.5" cy="0.5" r="0.5"><stop offset="0" stop-color="#ffffff" stop-opacity="0.55"/><stop offset="1" stop-color="#ffffff" stop-opacity="0"/></radialGradient><linearGradient id="ccalg3" x1="0" y1="0" x2="0" y2="1"><stop offset="0" stop-color="#1fc0c8"/><stop offset="1" stop-color="#0a7394"/></linearGradient><filter id="ccafl4"><feTurbulence type="fractalNoise" baseFrequency=".8" numOctaves="2" stitchTiles="stitch"/><feColorMatrix values="0 0 0 0 0  0 0 0 0 0  0 0 0 0 0  0 0 0 .9 0"/></filter></defs><rect width="1600" height="1000" fill="url(#ccalg1)"/><circle cx="220" cy="170" r="192.0" fill="url(#ccarg2)"/><circle cx="220" cy="170" r="60" fill="#fffbe0" opacity="1"/><path d="M1050.0 640.0 C1075.0 626.7 1145.0 575.0 1200.0 560.0 C1255.0 545.0 1313.3 543.3 1380.0 550.0 C1446.7 556.7 1553.3 585.0 1600.0 600.0 C1646.7 615.0 1650.0 633.3 1660.0 640.0 L1660.0 642 L1050.0 642Z" fill="#5aa05a"/><path d="M1000 640 Q1300 600 1660 640Z" fill="#fbe7b8"/><path d="M1173 610 Q1173.6 530.0 1145.0 450.0 L1151.0 450.0 Q1183.6 530.0 1187 610Z" fill="#1e4b3a"/><path d="M1148.0 450.0 Q1111.3 424.2 1073.8 474.3 Q1110.5 458.2 1148.0 450.0Z" fill="#1e4b3a"/><path d="M1148.0 450.0 Q1116.4 398.5 1075.2 454.9 Q1106.8 429.7 1148.0 450.0Z" fill="#1e4b3a"/><path d="M1148.0 450.0 Q1138.0 380.1 1111.6 436.2 Q1121.6 403.4 1148.0 450.0Z" fill="#1e4b3a"/><path d="M1148.0 450.0 Q1152.5 387.1 1139.0 434.7 Q1134.6 405.2 1148.0 450.0Z" fill="#1e4b3a"/><path d="M1148.0 450.0 Q1168.4 397.0 1171.9 437.7 Q1151.4 407.1 1148.0 450.0Z" fill="#1e4b3a"/><path d="M1148.0 450.0 Q1180.6 418.8 1202.5 451.5 Q1169.9 420.4 1148.0 450.0Z" fill="#1e4b3a"/><path d="M1148.0 450.0 Q1190.8 429.8 1229.0 467.5 Q1186.2 428.4 1148.0 450.0Z" fill="#1e4b3a"/><path d="M1253 610 Q1266.4 530.0 1289.0 450.0 L1295.0 450.0 Q1276.4 530.0 1267 610Z" fill="#1e4b3a"/><path d="M1292.0 450.0 Q1251.9 420.4 1210.1 474.4 Q1250.2 454.3 1292.0 450.0Z" fill="#1e4b3a"/><path d="M1292.0 450.0 Q1272.8 402.3 1241.6 449.0 Q1260.8 431.8 1292.0 450.0Z" fill="#1e4b3a"/><path d="M1292.0 450.0 Q1284.6 383.1 1260.4 436.3 Q1267.9 405.7 1292.0 450.0Z" fill="#1e4b3a"/><path d="M1292.0 450.0 Q1299.4 392.4 1288.8 435.8 Q1281.4 409.2 1292.0 450.0Z" fill="#1e4b3a"/><path d="M1292.0 450.0 Q1320.7 402.2 1334.4 442.0 Q1305.7 408.2 1292.0 450.0Z" fill="#1e4b3a"/><path d="M1292.0 450.0 Q1323.6 413.6 1342.8 448.2 Q1311.2 416.5 1292.0 450.0Z" fill="#1e4b3a"/><path d="M1292.0 450.0 Q1333.9 439.2 1374.4 475.4 Q1332.5 437.3 1292.0 450.0Z" fill="#1e4b3a"/><path d="M1413 610 Q1413.6 530.0 1385.0 450.0 L1391.0 450.0 Q1423.6 530.0 1427 610Z" fill="#1e4b3a"/><path d="M1388.0 450.0 Q1350.8 414.1 1309.4 467.8 Q1346.6 447.6 1388.0 450.0Z" fill="#1e4b3a"/><path d="M1388.0 450.0 Q1366.7 396.1 1332.9 447.4 Q1354.2 425.0 1388.0 450.0Z" fill="#1e4b3a"/><path d="M1388.0 450.0 Q1376.8 381.7 1349.5 437.2 Q1360.6 405.6 1388.0 450.0Z" fill="#1e4b3a"/><path d="M1388.0 450.0 Q1398.5 380.1 1391.0 432.2 Q1380.5 395.5 1388.0 450.0Z" fill="#1e4b3a"/><path d="M1388.0 450.0 Q1415.9 392.8 1427.9 438.4 Q1400.0 400.4 1388.0 450.0Z" fill="#1e4b3a"/><path d="M1388.0 450.0 Q1420.5 411.3 1440.6 447.7 Q1408.1 414.4 1388.0 450.0Z" fill="#1e4b3a"/><path d="M1388.0 450.0 Q1423.8 434.8 1455.4 465.4 Q1419.6 433.3 1388.0 450.0Z" fill="#1e4b3a"/><g fill="#fff" opacity="0.9"><ellipse cx="400.0" cy="200.0" rx="108.0" ry="33.6"/><ellipse cx="340.0" cy="209.6" rx="72.0" ry="24.0"/><ellipse cx="466.0" cy="207.2" rx="84.0" ry="26.4"/><ellipse cx="412.0" cy="178.4" rx="60.0" ry="31.2"/></g><rect x="0" y="640" width="1600" height="360" fill="url(#ccalg3)"/><rect x="408.7" y="729.9" width="32.0" height="2.2" rx="2" fill="#ffffff" opacity="0.2"/><rect x="295.7" y="776.4" width="78.2" height="2.6" rx="2" fill="#ffffff" opacity="0.2"/><rect x="955.1" y="977.7" width="204.9" height="4.3" rx="2" fill="#ffffff" opacity="0.2"/><rect x="576.1" y="904.7" width="69.3" height="3.7" rx="2" fill="#ffffff" opacity="0.3"/><rect x="1079.6" y="873.3" width="142.3" height="3.4" rx="2" fill="#ffffff" opacity="0.3"/><rect x="3.0" y="921.2" width="86.8" height="3.8" rx="2" fill="#ffffff" opacity="0.2"/><rect x="1505.8" y="742.2" width="47.9" height="2.4" rx="2" fill="#ffffff" opacity="0.3"/><rect x="602.8" y="758.8" width="112.8" height="2.5" rx="2" fill="#ffffff" opacity="0.3"/><rect x="356.9" y="809.5" width="70.0" height="2.9" rx="2" fill="#ffffff" opacity="0.2"/><rect x="1431.4" y="740.5" width="95.8" height="2.3" rx="2" fill="#ffffff" opacity="0.2"/><rect x="790.7" y="725.2" width="139.8" height="2.2" rx="2" fill="#ffffff" opacity="0.1"/><rect x="985.3" y="664.6" width="23.8" height="1.7" rx="2" fill="#ffffff" opacity="0.3"/><rect x="579.7" y="796.6" width="35.1" height="2.8" rx="2" fill="#ffffff" opacity="0.3"/><rect x="1370.3" y="834.2" width="201.5" height="3.1" rx="2" fill="#ffffff" opacity="0.1"/><rect x="836.0" y="901.7" width="179.8" height="3.7" rx="2" fill="#ffffff" opacity="0.2"/><rect x="667.4" y="873.6" width="53.7" height="3.4" rx="2" fill="#ffffff" opacity="0.2"/><rect x="384.6" y="983.7" width="266.1" height="4.4" rx="2" fill="#ffffff" opacity="0.2"/><rect x="1386.4" y="710.9" width="121.4" height="2.1" rx="2" fill="#ffffff" opacity="0.2"/><rect x="202.2" y="872.9" width="152.5" height="3.4" rx="2" fill="#ffffff" opacity="0.3"/><rect x="825.1" y="837.9" width="169.0" height="3.1" rx="2" fill="#ffffff" opacity="0.1"/><rect x="1483.0" y="762.1" width="24.9" height="2.5" rx="2" fill="#ffffff" opacity="0.3"/><rect x="45.6" y="940.7" width="109.2" height="4.0" rx="2" fill="#ffffff" opacity="0.3"/><rect x="751.9" y="981.3" width="62.4" height="4.3" rx="2" fill="#ffffff" opacity="0.1"/><rect x="161.8" y="915.7" width="204.6" height="3.8" rx="2" fill="#ffffff" opacity="0.2"/><rect x="1389.5" y="841.5" width="77.1" height="3.2" rx="2" fill="#ffffff" opacity="0.2"/><rect x="1154.4" y="722.6" width="83.4" height="2.2" rx="2" fill="#ffffff" opacity="0.2"/><rect x="1022.3" y="757.7" width="159.3" height="2.5" rx="2" fill="#ffffff" opacity="0.2"/><rect x="320.8" y="830.2" width="49.2" height="3.1" rx="2" fill="#ffffff" opacity="0.2"/><rect x="313.4" y="855.1" width="73.5" height="3.3" rx="2" fill="#ffffff" opacity="0.1"/><rect x="1443.9" y="870.1" width="76.4" height="3.4" rx="2" fill="#ffffff" opacity="0.3"/><rect x="1053.8" y="672.9" width="37.0" height="1.8" rx="2" fill="#ffffff" opacity="0.2"/><rect x="892.2" y="694.6" width="114.6" height="2.0" rx="2" fill="#ffffff" opacity="0.2"/><rect x="264.2" y="924.2" width="218.2" height="3.9" rx="2" fill="#ffffff" opacity="0.1"/><rect x="720.6" y="799.7" width="93.2" height="2.8" rx="2" fill="#ffffff" opacity="0.3"/><rect x="112.4" y="885.0" width="234.5" height="3.5" rx="2" fill="#ffffff" opacity="0.2"/><rect x="360.3" y="767.4" width="146.1" height="2.6" rx="2" fill="#ffffff" opacity="0.2"/><rect x="409.6" y="805.9" width="94.8" height="2.9" rx="2" fill="#ffffff" opacity="0.2"/><rect x="1371.2" y="973.0" width="151.3" height="4.3" rx="2" fill="#ffffff" opacity="0.2"/><rect x="1329.4" y="665.8" width="103.7" height="1.7" rx="2" fill="#ffffff" opacity="0.3"/><rect x="224.4" y="974.1" width="254.0" height="4.3" rx="2" fill="#ffffff" opacity="0.2"/><rect x="46.7" y="723.2" width="67.0" height="2.2" rx="2" fill="#ffffff" opacity="0.2"/><rect x="1243.7" y="994.8" width="111.4" height="4.5" rx="2" fill="#ffffff" opacity="0.2"/><rect x="1592.4" y="796.9" width="177.1" height="2.8" rx="2" fill="#ffffff" opacity="0.2"/><rect x="439.6" y="900.9" width="66.8" height="3.7" rx="2" fill="#ffffff" opacity="0.3"/><rect x="1184.2" y="851.9" width="131.5" height="3.3" rx="2" fill="#ffffff" opacity="0.1"/><rect x="1357.0" y="853.6" width="124.7" height="3.3" rx="2" fill="#ffffff" opacity="0.1"/><rect x="256.6" y="986.2" width="61.6" height="4.4" rx="2" fill="#ffffff" opacity="0.2"/><rect x="147.8" y="885.7" width="80.8" height="3.5" rx="2" fill="#ffffff" opacity="0.3"/><rect x="972.0" y="734.7" width="94.8" height="2.3" rx="2" fill="#ffffff" opacity="0.2"/><rect x="1492.3" y="853.5" width="128.4" height="3.3" rx="2" fill="#ffffff" opacity="0.2"/><rect x="603.0" y="900.1" width="84.6" height="3.7" rx="2" fill="#ffffff" opacity="0.2"/><rect x="1190.6" y="753.6" width="64.5" height="2.4" rx="2" fill="#ffffff" opacity="0.1"/><rect x="1593.6" y="809.3" width="191.2" height="2.9" rx="2" fill="#ffffff" opacity="0.1"/><rect x="1489.9" y="723.0" width="50.7" height="2.2" rx="2" fill="#ffffff" opacity="0.3"/><rect x="210.3" y="957.5" width="128.5" height="4.1" rx="2" fill="#ffffff" opacity="0.3"/><rect x="1578.9" y="895.6" width="162.3" height="3.6" rx="2" fill="#ffffff" opacity="0.2"/><rect x="444.0" y="650.8" width="79.6" height="1.6" rx="2" fill="#ffffff" opacity="0.2"/><rect x="140.5" y="978.5" width="74.4" height="4.3" rx="2" fill="#ffffff" opacity="0.1"/><rect x="948.0" y="842.7" width="78.7" height="3.2" rx="2" fill="#ffffff" opacity="0.2"/><rect x="385.6" y="719.7" width="93.5" height="2.2" rx="2" fill="#ffffff" opacity="0.2"/><path d="M304.0 639.0 L310.0 588.2 L1202.0 588.2 L1246.7 639.0Z" fill="#f3f5fb"/><rect x="348.0" y="606.0" width="7" height="17.8" rx="1.5" fill="#ffe9b0" opacity="0.7"/><rect x="364.0" y="606.0" width="7" height="17.8" rx="1.5" fill="#ffe9b0" opacity="0.6"/><rect x="380.0" y="606.0" width="7" height="17.8" rx="1.5" fill="#ffe9b0" opacity="0.8"/><rect x="396.0" y="606.0" width="7" height="17.8" rx="1.5" fill="#ffe9b0" opacity="0.9"/><rect x="412.0" y="606.0" width="7" height="17.8" rx="1.5" fill="#ffe9b0" opacity="0.7"/><rect x="428.0" y="606.0" width="7" height="17.8" rx="1.5" fill="#ffe9b0" opacity="0.6"/><rect x="476.0" y="606.0" width="7" height="17.8" rx="1.5" fill="#ffe9b0" opacity="0.9"/><rect x="492.0" y="606.0" width="7" height="17.8" rx="1.5" fill="#ffe9b0" opacity="0.6"/><rect x="508.0" y="606.0" width="7" height="17.8" rx="1.5" fill="#ffe9b0" opacity="0.7"/><rect x="540.0" y="606.0" width="7" height="17.8" rx="1.5" fill="#ffe9b0" opacity="0.9"/><rect x="572.0" y="606.0" width="7" height="17.8" rx="1.5" fill="#ffe9b0" opacity="0.7"/><rect x="588.0" y="606.0" width="7" height="17.8" rx="1.5" fill="#ffe9b0" opacity="0.9"/><rect x="620.0" y="606.0" width="7" height="17.8" rx="1.5" fill="#ffe9b0" opacity="0.8"/><rect x="636.0" y="606.0" width="7" height="17.8" rx="1.5" fill="#ffe9b0" opacity="1.0"/><rect x="716.0" y="606.0" width="7" height="17.8" rx="1.5" fill="#ffe9b0" opacity="0.9"/><rect x="732.0" y="606.0" width="7" height="17.8" rx="1.5" fill="#ffe9b0" opacity="1.0"/><rect x="796.0" y="606.0" width="7" height="17.8" rx="1.5" fill="#ffe9b0" opacity="0.9"/><rect x="812.0" y="606.0" width="7" height="17.8" rx="1.5" fill="#ffe9b0" opacity="0.9"/><rect x="844.0" y="606.0" width="7" height="17.8" rx="1.5" fill="#ffe9b0" opacity="0.9"/><rect x="860.0" y="606.0" width="7" height="17.8" rx="1.5" fill="#ffe9b0" opacity="0.7"/><rect x="876.0" y="606.0" width="7" height="17.8" rx="1.5" fill="#ffe9b0" opacity="0.7"/><rect x="892.0" y="606.0" width="7" height="17.8" rx="1.5" fill="#ffe9b0" opacity="0.6"/><rect x="908.0" y="606.0" width="7" height="17.8" rx="1.5" fill="#ffe9b0" opacity="0.9"/><rect x="940.0" y="606.0" width="7" height="17.8" rx="1.5" fill="#ffe9b0" opacity="0.8"/><rect x="956.0" y="606.0" width="7" height="17.8" rx="1.5" fill="#ffe9b0" opacity="1.0"/><rect x="972.0" y="606.0" width="7" height="17.8" rx="1.5" fill="#ffe9b0" opacity="1.0"/><rect x="988.0" y="606.0" width="7" height="17.8" rx="1.5" fill="#ffe9b0" opacity="1.0"/><rect x="1004.0" y="606.0" width="7" height="17.8" rx="1.5" fill="#ffe9b0" opacity="1.0"/><rect x="1020.0" y="606.0" width="7" height="17.8" rx="1.5" fill="#ffe9b0" opacity="0.6"/><rect x="1036.0" y="606.0" width="7" height="17.8" rx="1.5" fill="#ffe9b0" opacity="0.9"/><rect x="1052.0" y="606.0" width="7" height="17.8" rx="1.5" fill="#ffe9b0" opacity="0.8"/><rect x="1068.0" y="606.0" width="7" height="17.8" rx="1.5" fill="#ffe9b0" opacity="0.7"/><rect x="1084.0" y="606.0" width="7" height="17.8" rx="1.5" fill="#ffe9b0" opacity="0.7"/><rect x="1100.0" y="606.0" width="7" height="17.8" rx="1.5" fill="#ffe9b0" opacity="0.6"/><rect x="1132.0" y="606.0" width="7" height="17.8" rx="1.5" fill="#ffe9b0" opacity="0.9"/><rect x="1148.0" y="606.0" width="7" height="17.8" rx="1.5" fill="#ffe9b0" opacity="0.9"/><rect x="1164.0" y="606.0" width="7" height="17.8" rx="1.5" fill="#ffe9b0" opacity="0.6"/><rect x="1180.0" y="606.0" width="7" height="17.8" rx="1.5" fill="#ffe9b0" opacity="0.7"/><rect x="1196.0" y="606.0" width="7" height="17.8" rx="1.5" fill="#ffe9b0" opacity="0.9"/><path d="M337.0 588.2 L343.0 537.4 L1158.0 537.4 L1202.7 588.2Z" fill="#f3f5fb"/><rect x="349.0" y="555.1" width="7" height="17.8" rx="1.5" fill="#ffe9b0" opacity="0.7"/><rect x="365.0" y="555.1" width="7" height="17.8" rx="1.5" fill="#ffe9b0" opacity="0.7"/><rect x="381.0" y="555.1" width="7" height="17.8" rx="1.5" fill="#ffe9b0" opacity="0.7"/><rect x="397.0" y="555.1" width="7" height="17.8" rx="1.5" fill="#ffe9b0" opacity="0.7"/><rect x="429.0" y="555.1" width="7" height="17.8" rx="1.5" fill="#ffe9b0" opacity="1.0"/><rect x="445.0" y="555.1" width="7" height="17.8" rx="1.5" fill="#ffe9b0" opacity="0.7"/><rect x="461.0" y="555.1" width="7" height="17.8" rx="1.5" fill="#ffe9b0" opacity="0.6"/><rect x="477.0" y="555.1" width="7" height="17.8" rx="1.5" fill="#ffe9b0" opacity="0.7"/><rect x="493.0" y="555.1" width="7" height="17.8" rx="1.5" fill="#ffe9b0" opacity="0.8"/><rect x="509.0" y="555.1" width="7" height="17.8" rx="1.5" fill="#ffe9b0" opacity="0.7"/><rect x="525.0" y="555.1" width="7" height="17.8" rx="1.5" fill="#ffe9b0" opacity="0.8"/><rect x="557.0" y="555.1" width="7" height="17.8" rx="1.5" fill="#ffe9b0" opacity="0.6"/><rect x="573.0" y="555.1" width="7" height="17.8" rx="1.5" fill="#ffe9b0" opacity="0.8"/><rect x="589.0" y="555.1" width="7" height="17.8" rx="1.5" fill="#ffe9b0" opacity="0.7"/><rect x="621.0" y="555.1" width="7" height="17.8" rx="1.5" fill="#ffe9b0" opacity="0.9"/><rect x="637.0" y="555.1" width="7" height="17.8" rx="1.5" fill="#ffe9b0" opacity="0.6"/><rect x="653.0" y="555.1" width="7" height="17.8" rx="1.5" fill="#ffe9b0" opacity="0.7"/><rect x="669.0" y="555.1" width="7" height="17.8" rx="1.5" fill="#ffe9b0" opacity="0.9"/><rect x="685.0" y="555.1" width="7" height="17.8" rx="1.5" fill="#ffe9b0" opacity="0.7"/><rect x="701.0" y="555.1" width="7" height="17.8" rx="1.5" fill="#ffe9b0" opacity="0.6"/><rect x="717.0" y="555.1" width="7" height="17.8" rx="1.5" fill="#ffe9b0" opacity="0.8"/><rect x="733.0" y="555.1" width="7" height="17.8" rx="1.5" fill="#ffe9b0" opacity="0.8"/><rect x="749.0" y="555.1" width="7" height="17.8" rx="1.5" fill="#ffe9b0" opacity="0.9"/><rect x="765.0" y="555.1" width="7" height="17.8" rx="1.5" fill="#ffe9b0" opacity="0.6"/><rect x="781.0" y="555.1" width="7" height="17.8" rx="1.5" fill="#ffe9b0" opacity="0.6"/><rect x="813.0" y="555.1" width="7" height="17.8" rx="1.5" fill="#ffe9b0" opacity="0.6"/><rect x="829.0" y="555.1" width="7" height="17.8" rx="1.5" fill="#ffe9b0" opacity="0.9"/><rect x="845.0" y="555.1" width="7" height="17.8" rx="1.5" fill="#ffe9b0" opacity="0.9"/><rect x="861.0" y="555.1" width="7" height="17.8" rx="1.5" fill="#ffe9b0" opacity="1.0"/><rect x="877.0" y="555.1" width="7" height="17.8" rx="1.5" fill="#ffe9b0" opacity="1.0"/><rect x="909.0" y="555.1" width="7" height="17.8" rx="1.5" fill="#ffe9b0" opacity="0.9"/><rect x="925.0" y="555.1" width="7" height="17.8" rx="1.5" fill="#ffe9b0" opacity="0.9"/><rect x="941.0" y="555.1" width="7" height="17.8" rx="1.5" fill="#ffe9b0" opacity="1.0"/><rect x="957.0" y="555.1" width="7" height="17.8" rx="1.5" fill="#ffe9b0" opacity="0.8"/><rect x="973.0" y="555.1" width="7" height="17.8" rx="1.5" fill="#ffe9b0" opacity="0.7"/><rect x="989.0" y="555.1" width="7" height="17.8" rx="1.5" fill="#ffe9b0" opacity="0.9"/><rect x="1005.0" y="555.1" width="7" height="17.8" rx="1.5" fill="#ffe9b0" opacity="0.8"/><rect x="1021.0" y="555.1" width="7" height="17.8" rx="1.5" fill="#ffe9b0" opacity="0.6"/><rect x="1037.0" y="555.1" width="7" height="17.8" rx="1.5" fill="#ffe9b0" opacity="0.7"/><rect x="1053.0" y="555.1" width="7" height="17.8" rx="1.5" fill="#ffe9b0" opacity="0.8"/><rect x="1069.0" y="555.1" width="7" height="17.8" rx="1.5" fill="#ffe9b0" opacity="0.7"/><rect x="1085.0" y="555.1" width="7" height="17.8" rx="1.5" fill="#ffe9b0" opacity="0.9"/><rect x="1101.0" y="555.1" width="7" height="17.8" rx="1.5" fill="#ffe9b0" opacity="0.7"/><rect x="1117.0" y="555.1" width="7" height="17.8" rx="1.5" fill="#ffe9b0" opacity="0.7"/><rect x="1133.0" y="555.1" width="7" height="17.8" rx="1.5" fill="#ffe9b0" opacity="0.7"/><path d="M381.0 537.4 L387.0 486.5 L1092.0 486.5 L1136.7 537.4Z" fill="#f3f5fb"/><rect x="393.0" y="504.3" width="7" height="17.8" rx="1.5" fill="#ffe9b0" opacity="0.9"/><rect x="425.0" y="504.3" width="7" height="17.8" rx="1.5" fill="#ffe9b0" opacity="0.7"/><rect x="441.0" y="504.3" width="7" height="17.8" rx="1.5" fill="#ffe9b0" opacity="0.7"/><rect x="457.0" y="504.3" width="7" height="17.8" rx="1.5" fill="#ffe9b0" opacity="0.9"/><rect x="489.0" y="504.3" width="7" height="17.8" rx="1.5" fill="#ffe9b0" opacity="0.9"/><rect x="505.0" y="504.3" width="7" height="17.8" rx="1.5" fill="#ffe9b0" opacity="0.8"/><rect x="521.0" y="504.3" width="7" height="17.8" rx="1.5" fill="#ffe9b0" opacity="0.6"/><rect x="537.0" y="504.3" width="7" height="17.8" rx="1.5" fill="#ffe9b0" opacity="0.6"/><rect x="553.0" y="504.3" width="7" height="17.8" rx="1.5" fill="#ffe9b0" opacity="0.9"/><rect x="569.0" y="504.3" width="7" height="17.8" rx="1.5" fill="#ffe9b0" opacity="0.6"/><rect x="585.0" y="504.3" width="7" height="17.8" rx="1.5" fill="#ffe9b0" opacity="0.6"/><rect x="601.0" y="504.3" width="7" height="17.8" rx="1.5" fill="#ffe9b0" opacity="0.6"/><rect x="617.0" y="504.3" width="7" height="17.8" rx="1.5" fill="#ffe9b0" opacity="0.8"/><rect x="633.0" y="504.3" width="7" height="17.8" rx="1.5" fill="#ffe9b0" opacity="0.8"/><rect x="649.0" y="504.3" width="7" height="17.8" rx="1.5" fill="#ffe9b0" opacity="0.8"/><rect x="665.0" y="504.3" width="7" height="17.8" rx="1.5" fill="#ffe9b0" opacity="0.7"/><rect x="681.0" y="504.3" width="7" height="17.8" rx="1.5" fill="#ffe9b0" opacity="0.7"/><rect x="697.0" y="504.3" width="7" height="17.8" rx="1.5" fill="#ffe9b0" opacity="0.7"/><rect x="713.0" y="504.3" width="7" height="17.8" rx="1.5" fill="#ffe9b0" opacity="0.9"/><rect x="729.0" y="504.3" width="7" height="17.8" rx="1.5" fill="#ffe9b0" opacity="0.6"/><rect x="745.0" y="504.3" width="7" height="17.8" rx="1.5" fill="#ffe9b0" opacity="0.8"/><rect x="777.0" y="504.3" width="7" height="17.8" rx="1.5" fill="#ffe9b0" opacity="0.8"/><rect x="793.0" y="504.3" width="7" height="17.8" rx="1.5" fill="#ffe9b0" opacity="0.8"/><rect x="809.0" y="504.3" width="7" height="17.8" rx="1.5" fill="#ffe9b0" opacity="1.0"/><rect x="825.0" y="504.3" width="7" height="17.8" rx="1.5" fill="#ffe9b0" opacity="0.6"/><rect x="841.0" y="504.3" width="7" height="17.8" rx="1.5" fill="#ffe9b0" opacity="0.6"/><rect x="857.0" y="504.3" width="7" height="17.8" rx="1.5" fill="#ffe9b0" opacity="0.8"/><rect x="873.0" y="504.3" width="7" height="17.8" rx="1.5" fill="#ffe9b0" opacity="0.9"/><rect x="889.0" y="504.3" width="7" height="17.8" rx="1.5" fill="#ffe9b0" opacity="0.6"/><rect x="905.0" y="504.3" width="7" height="17.8" rx="1.5" fill="#ffe9b0" opacity="0.9"/><rect x="921.0" y="504.3" width="7" height="17.8" rx="1.5" fill="#ffe9b0" opacity="0.9"/><rect x="953.0" y="504.3" width="7" height="17.8" rx="1.5" fill="#ffe9b0" opacity="0.6"/><rect x="969.0" y="504.3" width="7" height="17.8" rx="1.5" fill="#ffe9b0" opacity="0.9"/><rect x="1001.0" y="504.3" width="7" height="17.8" rx="1.5" fill="#ffe9b0" opacity="0.9"/><rect x="1017.0" y="504.3" width="7" height="17.8" rx="1.5" fill="#ffe9b0" opacity="0.9"/><rect x="1033.0" y="504.3" width="7" height="17.8" rx="1.5" fill="#ffe9b0" opacity="0.6"/><rect x="1049.0" y="504.3" width="7" height="17.8" rx="1.5" fill="#ffe9b0" opacity="0.9"/><rect x="1065.0" y="504.3" width="7" height="17.8" rx="1.5" fill="#ffe9b0" opacity="0.6"/><path d="M436.0 486.5 L442.0 435.7 L1004.0 435.7 L1048.7 486.5Z" fill="#f3f5fb"/><rect x="448.0" y="453.5" width="7" height="17.8" rx="1.5" fill="#ffe9b0" opacity="0.7"/><rect x="464.0" y="453.5" width="7" height="17.8" rx="1.5" fill="#ffe9b0" opacity="0.7"/><rect x="480.0" y="453.5" width="7" height="17.8" rx="1.5" fill="#ffe9b0" opacity="0.7"/><rect x="528.0" y="453.5" width="7" height="17.8" rx="1.5" fill="#ffe9b0" opacity="1.0"/><rect x="544.0" y="453.5" width="7" height="17.8" rx="1.5" fill="#ffe9b0" opacity="0.9"/><rect x="560.0" y="453.5" width="7" height="17.8" rx="1.5" fill="#ffe9b0" opacity="0.7"/><rect x="576.0" y="453.5" width="7" height="17.8" rx="1.5" fill="#ffe9b0" opacity="1.0"/><rect x="592.0" y="453.5" width="7" height="17.8" rx="1.5" fill="#ffe9b0" opacity="0.9"/><rect x="608.0" y="453.5" width="7" height="17.8" rx="1.5" fill="#ffe9b0" opacity="0.8"/><rect x="624.0" y="453.5" width="7" height="17.8" rx="1.5" fill="#ffe9b0" opacity="0.9"/><rect x="640.0" y="453.5" width="7" height="17.8" rx="1.5" fill="#ffe9b0" opacity="0.9"/><rect x="672.0" y="453.5" width="7" height="17.8" rx="1.5" fill="#ffe9b0" opacity="0.9"/><rect x="688.0" y="453.5" width="7" height="17.8" rx="1.5" fill="#ffe9b0" opacity="0.8"/><rect x="704.0" y="453.5" width="7" height="17.8" rx="1.5" fill="#ffe9b0" opacity="0.7"/><rect x="720.0" y="453.5" width="7" height="17.8" rx="1.5" fill="#ffe9b0" opacity="0.9"/><rect x="736.0" y="453.5" width="7" height="17.8" rx="1.5" fill="#ffe9b0" opacity="0.6"/><rect x="752.0" y="453.5" width="7" height="17.8" rx="1.5" fill="#ffe9b0" opacity="0.7"/><rect x="784.0" y="453.5" width="7" height="17.8" rx="1.5" fill="#ffe9b0" opacity="0.7"/><rect x="800.0" y="453.5" width="7" height="17.8" rx="1.5" fill="#ffe9b0" opacity="1.0"/><rect x="816.0" y="453.5" width="7" height="17.8" rx="1.5" fill="#ffe9b0" opacity="0.9"/><rect x="832.0" y="453.5" width="7" height="17.8" rx="1.5" fill="#ffe9b0" opacity="0.9"/><rect x="848.0" y="453.5" width="7" height="17.8" rx="1.5" fill="#ffe9b0" opacity="0.8"/><rect x="864.0" y="453.5" width="7" height="17.8" rx="1.5" fill="#ffe9b0" opacity="0.9"/><rect x="880.0" y="453.5" width="7" height="17.8" rx="1.5" fill="#ffe9b0" opacity="0.6"/><rect x="896.0" y="453.5" width="7" height="17.8" rx="1.5" fill="#ffe9b0" opacity="0.7"/><rect x="912.0" y="453.5" width="7" height="17.8" rx="1.5" fill="#ffe9b0" opacity="0.8"/><rect x="928.0" y="453.5" width="7" height="17.8" rx="1.5" fill="#ffe9b0" opacity="0.7"/><rect x="944.0" y="453.5" width="7" height="17.8" rx="1.5" fill="#ffe9b0" opacity="0.7"/><rect x="960.0" y="453.5" width="7" height="17.8" rx="1.5" fill="#ffe9b0" opacity="0.7"/><rect x="976.0" y="453.5" width="7" height="17.8" rx="1.5" fill="#ffe9b0" opacity="0.6"/><rect x="992.0" y="453.5" width="7" height="17.8" rx="1.5" fill="#ffe9b0" opacity="0.6"/><path d="M524.0 435.7 L530.0 384.9 L872.0 384.9 L916.7 435.7Z" fill="#f3f5fb"/><rect x="536.0" y="402.7" width="7" height="17.8" rx="1.5" fill="#ffe9b0" opacity="0.9"/><rect x="552.0" y="402.7" width="7" height="17.8" rx="1.5" fill="#ffe9b0" opacity="0.6"/><rect x="568.0" y="402.7" width="7" height="17.8" rx="1.5" fill="#ffe9b0" opacity="0.9"/><rect x="600.0" y="402.7" width="7" height="17.8" rx="1.5" fill="#ffe9b0" opacity="0.7"/><rect x="616.0" y="402.7" width="7" height="17.8" rx="1.5" fill="#ffe9b0" opacity="0.6"/><rect x="632.0" y="402.7" width="7" height="17.8" rx="1.5" fill="#ffe9b0" opacity="0.6"/><rect x="648.0" y="402.7" width="7" height="17.8" rx="1.5" fill="#ffe9b0" opacity="0.8"/><rect x="664.0" y="402.7" width="7" height="17.8" rx="1.5" fill="#ffe9b0" opacity="1.0"/><rect x="680.0" y="402.7" width="7" height="17.8" rx="1.5" fill="#ffe9b0" opacity="0.9"/><rect x="696.0" y="402.7" width="7" height="17.8" rx="1.5" fill="#ffe9b0" opacity="0.9"/><rect x="712.0" y="402.7" width="7" height="17.8" rx="1.5" fill="#ffe9b0" opacity="0.9"/><rect x="728.0" y="402.7" width="7" height="17.8" rx="1.5" fill="#ffe9b0" opacity="0.8"/><rect x="744.0" y="402.7" width="7" height="17.8" rx="1.5" fill="#ffe9b0" opacity="0.6"/><rect x="760.0" y="402.7" width="7" height="17.8" rx="1.5" fill="#ffe9b0" opacity="1.0"/><rect x="776.0" y="402.7" width="7" height="17.8" rx="1.5" fill="#ffe9b0" opacity="0.9"/><rect x="792.0" y="402.7" width="7" height="17.8" rx="1.5" fill="#ffe9b0" opacity="0.6"/><rect x="808.0" y="402.7" width="7" height="17.8" rx="1.5" fill="#ffe9b0" opacity="0.6"/><rect x="824.0" y="402.7" width="7" height="17.8" rx="1.5" fill="#ffe9b0" opacity="0.8"/><rect x="840.0" y="402.7" width="7" height="17.8" rx="1.5" fill="#ffe9b0" opacity="1.0"/><rect x="856.0" y="402.7" width="7" height="17.8" rx="1.5" fill="#ffe9b0" opacity="0.9"/><rect x="872.0" y="402.7" width="7" height="17.8" rx="1.5" fill="#ffe9b0" opacity="0.9"/><path d="M590.0 384.9 L623.0 276.0 L711.0 276.0 L733.0 384.9Z" fill="#e03c3c"/><rect x="617.5" y="297.8" width="110.0" height="21.8" fill="#1f3b8f"/><path d="M260.0 639.0 L1283.0 639.0 L1360.0 596.6 L1250.0 760.0 L326.0 760.0 L249.0 687.4Z" fill="#ffffff"/><rect x="315.0" y="685.0" width="968.0" height="14.5" fill="#1f3b8f"/><circle cx="348.0" cy="663.2" r="3" fill="#ffe9b0" opacity=".7"/><circle cx="370.0" cy="663.2" r="3" fill="#ffe9b0" opacity=".7"/><circle cx="392.0" cy="663.2" r="3" fill="#ffe9b0" opacity=".7"/><circle cx="414.0" cy="663.2" r="3" fill="#ffe9b0" opacity=".7"/><circle cx="436.0" cy="663.2" r="3" fill="#ffe9b0" opacity=".7"/><circle cx="458.0" cy="663.2" r="3" fill="#ffe9b0" opacity=".7"/><circle cx="480.0" cy="663.2" r="3" fill="#ffe9b0" opacity=".7"/><circle cx="502.0" cy="663.2" r="3" fill="#ffe9b0" opacity=".7"/><circle cx="524.0" cy="663.2" r="3" fill="#ffe9b0" opacity=".7"/><circle cx="546.0" cy="663.2" r="3" fill="#ffe9b0" opacity=".7"/><circle cx="568.0" cy="663.2" r="3" fill="#ffe9b0" opacity=".7"/><circle cx="590.0" cy="663.2" r="3" fill="#ffe9b0" opacity=".7"/><circle cx="612.0" cy="663.2" r="3" fill="#ffe9b0" opacity=".7"/><circle cx="634.0" cy="663.2" r="3" fill="#ffe9b0" opacity=".7"/><circle cx="656.0" cy="663.2" r="3" fill="#ffe9b0" opacity=".7"/><circle cx="678.0" cy="663.2" r="3" fill="#ffe9b0" opacity=".7"/><circle cx="700.0" cy="663.2" r="3" fill="#ffe9b0" opacity=".7"/><circle cx="722.0" cy="663.2" r="3" fill="#ffe9b0" opacity=".7"/><circle cx="744.0" cy="663.2" r="3" fill="#ffe9b0" opacity=".7"/><circle cx="766.0" cy="663.2" r="3" fill="#ffe9b0" opacity=".7"/><circle cx="788.0" cy="663.2" r="3" fill="#ffe9b0" opacity=".7"/><circle cx="810.0" cy="663.2" r="3" fill="#ffe9b0" opacity=".7"/><circle cx="832.0" cy="663.2" r="3" fill="#ffe9b0" opacity=".7"/><circle cx="854.0" cy="663.2" r="3" fill="#ffe9b0" opacity=".7"/><circle cx="876.0" cy="663.2" r="3" fill="#ffe9b0" opacity=".7"/><circle cx="898.0" cy="663.2" r="3" fill="#ffe9b0" opacity=".7"/><circle cx="920.0" cy="663.2" r="3" fill="#ffe9b0" opacity=".7"/><circle cx="942.0" cy="663.2" r="3" fill="#ffe9b0" opacity=".7"/><circle cx="964.0" cy="663.2" r="3" fill="#ffe9b0" opacity=".7"/><circle cx="986.0" cy="663.2" r="3" fill="#ffe9b0" opacity=".7"/><circle cx="1008.0" cy="663.2" r="3" fill="#ffe9b0" opacity=".7"/><circle cx="1030.0" cy="663.2" r="3" fill="#ffe9b0" opacity=".7"/><circle cx="1052.0" cy="663.2" r="3" fill="#ffe9b0" opacity=".7"/><circle cx="1074.0" cy="663.2" r="3" fill="#ffe9b0" opacity=".7"/><circle cx="1096.0" cy="663.2" r="3" fill="#ffe9b0" opacity=".7"/><circle cx="1118.0" cy="663.2" r="3" fill="#ffe9b0" opacity=".7"/><circle cx="1140.0" cy="663.2" r="3" fill="#ffe9b0" opacity=".7"/><circle cx="1162.0" cy="663.2" r="3" fill="#ffe9b0" opacity=".7"/><circle cx="1184.0" cy="663.2" r="3" fill="#ffe9b0" opacity=".7"/><circle cx="1206.0" cy="663.2" r="3" fill="#ffe9b0" opacity=".7"/><circle cx="1228.0" cy="663.2" r="3" fill="#ffe9b0" opacity=".7"/><circle cx="1250.0" cy="663.2" r="3" fill="#ffe9b0" opacity=".7"/><path d="M260 760 Q700 790 1360 762" stroke="#ffffff" stroke-width="6" opacity=".35" fill="none"/><path d="M1340 760 q60 10 160 -6 q-60 20 -150 22z" fill="#ffffff" opacity=".6"/><rect width="1600" height="1000" filter="url(#ccafl4)" opacity="0.07"/></svg>