<svg xmlns="http://www.w3.org/2000/svg" viewBox="0 0 1600 1000" preserveAspectRatio="xMidYMid slice"><defs><linearGradient id="mallg1" x1="0" y1="0" x2="0" y2="1"><stop offset="0" stop-color="#ffb58a"/><stop offset="0.5" stop-color="#ffd3a3"/><stop offset="1" stop-color="#ffe9c8"/></linearGradient><radialGradient id="malrg2" cx="0.5" cy="0.5" r="0.5"><stop offset="0" stop-color="#ffe0b0" stop-opacity="0.55"/><stop offset="1" stop-color="#ffe0b0" stop-opacity="0"/></radialGradient><linearGradient id="mallg3" x1="0" y1="0" x2="0" y2="1"><stop offset="0" stop-color="#8fe0da"/><stop offset="0.5" stop-color="#3cc1c7"/><stop offset="1" stop-color="#0d8ea5"/></linearGradient><filter id="malfl4"><feTurbulence type="fractalNoise" baseFrequency=".8" numOctaves="2" stitchTiles="stitch"/><feColorMatrix values="0 0 0 0 0  0 0 0 0 0  0 0 0 0 0  0 0 0 .9 0"/></filter></defs><rect width="1600" height="1000" fill="url(#mallg1)"/><circle cx="1180" cy="470" r="288.0" fill="url(#malrg2)"/><circle cx="1180" cy="470" r="90" fill="#fff4d6" opacity="1"/><rect x="0" y="540" width="1600" height="460" fill="url(#mallg3)"/><rect x="750.3" y="906.6" width="222.8" height="3.9" rx="2" fill="#ffffff" opacity="0.2"/><rect x="725.9" y="548.2" width="65.2" height="1.6" rx="2" fill="#ffffff" opacity="0.3"/><rect x="400.0" y="716.7" width="138.3" height="2.7" rx="2" fill="#ffffff" opacity="0.3"/><rect x="838.2" y="877.9" width="123.3" height="3.7" rx="2" fill="#ffffff" opacity="0.3"/><rect x="1278.5" y="635.2" width="82.1" height="2.1" rx="2" fill="#ffffff" opacity="0.2"/><rect x="1343.1" y="911.1" width="193.4" height="3.9" rx="2" fill="#ffffff" opacity="0.2"/><rect x="1277.9" y="590.1" width="92.6" height="1.8" rx="2" fill="#ffffff" opacity="0.2"/><rect x="997.6" y="590.4" width="34.4" height="1.8" rx="2" fill="#ffffff" opacity="0.2"/><rect x="281.4" y="978.0" width="191.8" height="4.4" rx="2" fill="#ffffff" opacity="0.3"/><rect x="1450.7" y="710.9" width="159.9" height="2.6" rx="2" fill="#ffffff" opacity="0.2"/><rect x="1279.1" y="839.3" width="170.9" height="3.5" rx="2" fill="#ffffff" opacity="0.3"/><rect x="942.9" y="560.8" width="43.9" height="1.6" rx="2" fill="#ffffff" opacity="0.2"/><rect x="1402.1" y="814.3" width="46.9" height="3.3" rx="2" fill="#ffffff" opacity="0.3"/><rect x="465.3" y="600.8" width="83.0" height="1.9" rx="2" fill="#ffffff" opacity="0.2"/><rect x="296.3" y="766.7" width="50.2" height="3.0" rx="2" fill="#ffffff" opacity="0.3"/><rect x="1233.8" y="863.6" width="35.7" height="3.6" rx="2" fill="#ffffff" opacity="0.1"/><rect x="973.4" y="698.5" width="150.3" height="2.5" rx="2" fill="#ffffff" opacity="0.2"/><rect x="159.3" y="718.6" width="81.9" height="2.7" rx="2" fill="#ffffff" opacity="0.3"/><rect x="1181.4" y="572.3" width="51.9" height="1.7" rx="2" fill="#ffffff" opacity="0.2"/><rect x="1565.8" y="991.4" width="105.8" height="4.4" rx="2" fill="#ffffff" opacity="0.3"/><rect x="687.9" y="850.9" width="214.1" height="3.5" rx="2" fill="#ffffff" opacity="0.3"/><rect x="727.0" y="907.8" width="153.8" height="3.9" rx="2" fill="#ffffff" opacity="0.3"/><rect x="1181.8" y="732.9" width="38.0" height="2.8" rx="2" fill="#ffffff" opacity="0.2"/><rect x="234.0" y="768.4" width="160.5" height="3.0" rx="2" fill="#ffffff" opacity="0.1"/><rect x="545.7" y="603.8" width="76.5" height="1.9" rx="2" fill="#ffffff" opacity="0.2"/><rect x="370.4" y="752.1" width="177.6" height="2.9" rx="2" fill="#ffffff" opacity="0.2"/><rect x="392.1" y="945.4" width="187.5" height="4.1" rx="2" fill="#ffffff" opacity="0.2"/><rect x="572.8" y="764.3" width="50.6" height="3.0" rx="2" fill="#ffffff" opacity="0.2"/><rect x="1037.8" y="911.7" width="110.5" height="3.9" rx="2" fill="#ffffff" opacity="0.3"/><rect x="945.0" y="965.2" width="134.4" height="4.3" rx="2" fill="#ffffff" opacity="0.2"/><rect x="1259.2" y="728.0" width="99.2" height="2.7" rx="2" fill="#ffffff" opacity="0.3"/><rect x="691.4" y="679.4" width="21.9" height="2.4" rx="2" fill="#ffffff" opacity="0.2"/><rect x="135.0" y="561.6" width="79.1" height="1.6" rx="2" fill="#ffffff" opacity="0.3"/><rect x="1358.3" y="711.6" width="161.0" height="2.6" rx="2" fill="#ffffff" opacity="0.2"/><rect x="962.2" y="635.1" width="127.4" height="2.1" rx="2" fill="#ffffff" opacity="0.2"/><rect x="761.3" y="901.6" width="218.9" height="3.9" rx="2" fill="#ffffff" opacity="0.2"/><rect x="189.2" y="593.3" width="50.9" height="1.8" rx="2" fill="#ffffff" opacity="0.3"/><rect x="986.2" y="822.2" width="58.2" height="3.3" rx="2" fill="#ffffff" opacity="0.2"/><rect x="713.5" y="595.7" width="79.5" height="1.9" rx="2" fill="#ffffff" opacity="0.3"/><rect x="159.6" y="832.4" width="169.1" height="3.4" rx="2" fill="#ffffff" opacity="0.3"/><rect x="1453.8" y="585.8" width="73.6" height="1.8" rx="2" fill="#ffffff" opacity="0.3"/><rect x="1094.8" y="951.8" width="150.1" height="4.2" rx="2" fill="#ffffff" opacity="0.3"/><rect x="1449.5" y="610.0" width="115.5" height="2.0" rx="2" fill="#ffffff" opacity="0.2"/><rect x="406.1" y="899.9" width="135.9" height="3.8" rx="2" fill="#ffffff" opacity="0.3"/><rect x="1563.8" y="576.8" width="87.4" height="1.7" rx="2" fill="#ffffff" opacity="0.2"/><rect x="1365.8" y="972.7" width="61.5" height="4.3" rx="2" fill="#ffffff" opacity="0.2"/><rect x="1471.6" y="984.7" width="152.9" height="4.4" rx="2" fill="#ffffff" opacity="0.1"/><rect x="1003.6" y="586.7" width="92.8" height="1.8" rx="2" fill="#ffffff" opacity="0.3"/><rect x="561.3" y="562.8" width="28.3" height="1.6" rx="2" fill="#ffffff" opacity="0.2"/><rect x="1517.2" y="996.9" width="244.3" height="4.5" rx="2" fill="#ffffff" opacity="0.3"/><rect x="1157.0" y="703.3" width="33.8" height="2.6" rx="2" fill="#ffffff" opacity="0.2"/><rect x="766.0" y="795.3" width="112.9" height="3.2" rx="2" fill="#ffffff" opacity="0.2"/><rect x="0.3" y="581.4" width="63.1" height="1.8" rx="2" fill="#ffffff" opacity="0.3"/><rect x="199.2" y="615.9" width="47.2" height="2.0" rx="2" fill="#ffffff" opacity="0.3"/><rect x="315.6" y="723.5" width="57.8" height="2.7" rx="2" fill="#ffffff" opacity="0.3"/><rect x="219.3" y="959.6" width="143.9" height="4.2" rx="2" fill="#ffffff" opacity="0.2"/><rect x="1247.6" y="656.6" width="90.7" height="2.3" rx="2" fill="#ffffff" opacity="0.3"/><rect x="578.8" y="633.0" width="55.3" height="2.1" rx="2" fill="#ffffff" opacity="0.2"/><rect x="859.2" y="727.7" width="177.4" height="2.7" rx="2" fill="#ffffff" opacity="0.3"/><rect x="1278.7" y="871.8" width="171.1" height="3.7" rx="2" fill="#ffffff" opacity="0.2"/><rect x="1067.3" y="546.0" width="225.3" height="5" rx="2.5" fill="#fff4d6" opacity="0.5"/><rect x="1065.7" y="560.0" width="228.6" height="5" rx="2.5" fill="#fff4d6" opacity="0.4"/><rect x="1112.7" y="574.0" width="134.6" height="5" rx="2.5" fill="#fff4d6" opacity="0.4"/><rect x="1106.3" y="588.0" width="147.4" height="5" rx="2.5" fill="#fff4d6" opacity="0.3"/><rect x="1125.6" y="602.0" width="108.9" height="5" rx="2.5" fill="#fff4d6" opacity="0.3"/><rect x="1143.9" y="616.0" width="72.2" height="5" rx="2.5" fill="#fff4d6" opacity="0.2"/><rect x="1153.3" y="630.0" width="53.4" height="5" rx="2.5" fill="#fff4d6" opacity="0.2"/><rect x="1153.9" y="644.0" width="52.2" height="5" rx="2.5" fill="#fff4d6" opacity="0.1"/><rect x="1170.7" y="658.0" width="18.7" height="5" rx="2.5" fill="#fff4d6" opacity="0.1"/><rect x="60" y="556.0" width="940" height="8" fill="#5c3a26"/><rect x="95.3" y="560.0" width="4" height="46" fill="#5c3a26"/><rect x="177.3" y="560.0" width="4" height="46" fill="#5c3a26"/><rect x="91.3" y="520.0" width="94.0" height="40" fill="#f5e3c4"/><rect x="119.5" y="532.0" width="37.6" height="28" fill="#5c3a26" opacity=".6"/><path d="M77.3 522.0 L138.3 474.0 L199.3 522.0Z" fill="#b0703f"/><rect x="87.3" y="606.0" width="102.0" height="4" fill="#ffffff" opacity=".35"/><rect x="252.0" y="560.0" width="4" height="46" fill="#5c3a26"/><rect x="334.0" y="560.0" width="4" height="46" fill="#5c3a26"/><rect x="248.0" y="520.0" width="94.0" height="40" fill="#f5e3c4"/><rect x="276.2" y="532.0" width="37.6" height="28" fill="#5c3a26" opacity=".6"/><path d="M234.0 522.0 L295.0 474.0 L356.0 522.0Z" fill="#b0703f"/><rect x="244.0" y="606.0" width="102.0" height="4" fill="#ffffff" opacity=".35"/><rect x="408.7" y="560.0" width="4" height="46" fill="#5c3a26"/><rect x="490.7" y="560.0" width="4" height="46" fill="#5c3a26"/><rect x="404.7" y="520.0" width="94.0" height="40" fill="#f5e3c4"/><rect x="432.9" y="532.0" width="37.6" height="28" fill="#5c3a26" opacity=".6"/><path d="M390.7 522.0 L451.7 474.0 L512.7 522.0Z" fill="#b0703f"/><rect x="400.7" y="606.0" width="102.0" height="4" fill="#ffffff" opacity=".35"/><rect x="565.3" y="560.0" width="4" height="46" fill="#5c3a26"/><rect x="647.3" y="560.0" width="4" height="46" fill="#5c3a26"/><rect x="561.3" y="520.0" width="94.0" height="40" fill="#f5e3c4"/><rect x="589.5" y="532.0" width="37.6" height="28" fill="#5c3a26" opacity=".6"/><path d="M547.3 522.0 L608.3 474.0 L669.3 522.0Z" fill="#b0703f"/><rect x="557.3" y="606.0" width="102.0" height="4" fill="#ffffff" opacity=".35"/><rect x="722.0" y="560.0" width="4" height="46" fill="#5c3a26"/><rect x="804.0" y="560.0" width="4" height="46" fill="#5c3a26"/><rect x="718.0" y="520.0" width="94.0" height="40" fill="#f5e3c4"/><rect x="746.2" y="532.0" width="37.6" height="28" fill="#5c3a26" opacity=".6"/><path d="M704.0 522.0 L765.0 474.0 L826.0 522.0Z" fill="#b0703f"/><rect x="714.0" y="606.0" width="102.0" height="4" fill="#ffffff" opacity=".35"/><rect x="878.7" y="560.0" width="4" height="46" fill="#5c3a26"/><rect x="960.7" y="560.0" width="4" height="46" fill="#5c3a26"/><rect x="874.7" y="520.0" width="94.0" height="40" fill="#f5e3c4"/><rect x="902.9" y="532.0" width="37.6" height="28" fill="#5c3a26" opacity=".6"/><path d="M860.7 522.0 L921.7 474.0 L982.7 522.0Z" fill="#b0703f"/><rect x="870.7" y="606.0" width="102.0" height="4" fill="#ffffff" opacity=".35"/><path d="M1100 700 C1250 640 1450 650 1650 700 L1650 1010 L1100 1010Z" fill="#fbe7c2"/><path d="M1343 720 Q1338.8 580.0 1291.0 440.0 L1297.0 440.0 Q1348.8 580.0 1357 720Z" fill="#3d2f2a"/><path d="M1294.0 440.0 Q1236.7 393.6 1175.2 467.2 Q1232.5 427.2 1294.0 440.0Z" fill="#3d2f2a"/><path d="M1294.0 440.0 Q1250.1 371.8 1196.0 444.5 Q1239.9 402.6 1294.0 440.0Z" fill="#3d2f2a"/><path d="M1294.0 440.0 Q1268.6 329.3 1227.0 417.9 Q1252.4 353.2 1294.0 440.0Z" fill="#3d2f2a"/><path d="M1294.0 440.0 Q1297.5 330.7 1283.1 411.6 Q1279.6 348.0 1294.0 440.0Z" fill="#3d2f2a"/><path d="M1294.0 440.0 Q1337.5 357.8 1366.0 425.7 Q1322.5 363.9 1294.0 440.0Z" fill="#3d2f2a"/><path d="M1294.0 440.0 Q1359.2 368.8 1413.6 442.7 Q1348.4 370.5 1294.0 440.0Z" fill="#3d2f2a"/><path d="M1294.0 440.0 Q1357.1 422.5 1418.8 478.8 Q1355.8 420.5 1294.0 440.0Z" fill="#3d2f2a"/><path d="M1473 740 Q1489.2 625.0 1523.0 510.0 L1529.0 510.0 Q1499.2 625.0 1487 740Z" fill="#3d2f2a"/><path d="M1526.0 510.0 Q1478.7 469.9 1427.4 533.3 Q1474.7 503.5 1526.0 510.0Z" fill="#3d2f2a"/><path d="M1526.0 510.0 Q1473.3 439.9 1411.5 519.4 Q1464.2 471.4 1526.0 510.0Z" fill="#3d2f2a"/><path d="M1526.0 510.0 Q1497.1 418.3 1453.3 496.1 Q1482.2 444.4 1526.0 510.0Z" fill="#3d2f2a"/><path d="M1526.0 510.0 Q1539.2 417.3 1534.5 485.9 Q1521.3 432.1 1526.0 510.0Z" fill="#3d2f2a"/><path d="M1526.0 510.0 Q1564.2 431.7 1586.9 495.0 Q1548.7 438.6 1526.0 510.0Z" fill="#3d2f2a"/><path d="M1526.0 510.0 Q1575.0 453.7 1612.4 509.5 Q1563.4 455.9 1526.0 510.0Z" fill="#3d2f2a"/><path d="M1526.0 510.0 Q1590.3 477.7 1650.0 536.9 Q1585.7 476.3 1526.0 510.0Z" fill="#3d2f2a"/><ellipse cx="800.9" cy="917.5" rx="87" ry="12" fill="#bff3ee" opacity=".45"/><ellipse cx="633.0" cy="811.0" rx="102" ry="16" fill="#bff3ee" opacity=".45"/><ellipse cx="184.3" cy="879.1" rx="64" ry="13" fill="#bff3ee" opacity=".45"/><ellipse cx="430.4" cy="783.4" rx="63" ry="13" fill="#bff3ee" opacity=".45"/><ellipse cx="929.2" cy="949.6" rx="115" ry="8" fill="#bff3ee" opacity=".45"/><ellipse cx="409.6" cy="766.1" rx="103" ry="9" fill="#bff3ee" opacity=".45"/><ellipse cx="536.4" cy="852.7" rx="93" ry="9" fill="#bff3ee" opacity=".45"/><ellipse cx="709.4" cy="883.2" rx="89" ry="10" fill="#bff3ee" opacity=".45"/><ellipse cx="213.3" cy="869.2" rx="91" ry="14" fill="#bff3ee" opacity=".45"/><ellipse cx="983.8" cy="845.8" rx="126" ry="15" fill="#bff3ee" opacity=".45"/><ellipse cx="935.7" cy="810.6" rx="98" ry="8" fill="#bff3ee" opacity=".45"/><ellipse cx="273.3" cy="849.7" rx="82" ry="9" fill="#bff3ee" opacity=".45"/><rect width="1600" height="1000" filter="url(#malfl4)" opacity="0.07"/></svg>