<svg xmlns="http://www.w3.org/2000/svg" viewBox="0 0 1600 1000" preserveAspectRatio="xMidYMid slice"><defs><linearGradient id="nylg1" x1="0" y1="0" x2="0" y2="1"><stop offset="0" stop-color="#0f1a3d"/><stop offset="0.55" stop-color="#3a3f86"/><stop offset="1" stop-color="#e0808a"/></linearGradient><radialGradient id="nyrg2" cx="0.5" cy="0.5" r="0.5"><stop offset="0" stop-color="#ffffff" stop-opacity="0.55"/><stop offset="1" stop-color="#ffffff" stop-opacity="0"/></radialGradient><linearGradient id="nylg3" x1="0" y1="0" x2="0" y2="1"><stop offset="0" stop-color="#232a63"/><stop offset="1" stop-color="#0c1030"/></linearGradient><filter id="nyfl4"><feTurbulence type="fractalNoise" baseFrequency=".8" numOctaves="2" stitchTiles="stitch"/><feColorMatrix values="0 0 0 0 0  0 0 0 0 0  0 0 0 0 0  0 0 0 .9 0"/></filter></defs><rect width="1600" height="1000" fill="url(#nylg1)"/><circle cx="759.3" cy="249.8" r="1.9" fill="#fff" opacity="0.4"/><circle cx="17.4" cy="142.4" r="1.2" fill="#fff" opacity="0.8"/><circle cx="1104.9" cy="228.6" r="1.7" fill="#fff" opacity="0.7"/><circle cx="232.5" cy="167.2" r="1.1" fill="#fff" opacity="0.9"/><circle cx="94.1" cy="311.2" r="0.9" fill="#fff" opacity="0.7"/><circle cx="539.2" cy="153.8" r="2.1" fill="#fff" opacity="0.3"/><circle cx="97.3" cy="347.7" r="1.6" fill="#fff" opacity="0.4"/><circle cx="1579.4" cy="359.8" r="1.0" fill="#fff" opacity="0.6"/><circle cx="216.1" cy="118.8" r="1.8" fill="#fff" opacity="0.4"/><circle cx="1114.9" cy="19.5" r="1.1" fill="#fff" opacity="0.8"/><circle cx="640.8" cy="159.2" r="1.8" fill="#fff" opacity="0.6"/><circle cx="615.3" cy="11.6" r="2.0" fill="#fff" opacity="0.9"/><circle cx="1562.1" cy="252.2" r="1.4" fill="#fff" opacity="0.5"/><circle cx="1104.2" cy="256.0" r="1.0" fill="#fff" opacity="0.5"/><circle cx="581.3" cy="194.3" r="2.1" fill="#fff" opacity="0.6"/><circle cx="45.0" cy="312.6" r="1.5" fill="#fff" opacity="0.6"/><circle cx="355.5" cy="162.4" r="1.4" fill="#fff" opacity="0.8"/><circle cx="164.2" cy="209.0" r="1.1" fill="#fff" opacity="0.8"/><circle cx="59.0" cy="105.1" r="1.4" fill="#fff" opacity="0.7"/><circle cx="83.3" cy="174.5" r="1.1" fill="#fff" opacity="0.5"/><circle cx="762.0" cy="364.3" r="1.6" fill="#fff" opacity="0.9"/><circle cx="268.1" cy="351.2" r="1.4" fill="#fff" opacity="0.4"/><circle cx="1197.6" cy="346.6" r="0.8" fill="#fff" opacity="0.5"/><circle cx="1233.1" cy="129.9" r="1.2" fill="#fff" opacity="0.3"/><circle cx="64.0" cy="235.2" r="2.4" fill="#fff" opacity="0.9"/><circle cx="805.8" cy="9.1" r="1.3" fill="#fff" opacity="0.8"/><circle cx="1331.1" cy="243.0" r="1.2" fill="#fff" opacity="0.6"/><circle cx="763.8" cy="238.3" r="1.2" fill="#fff" opacity="0.9"/><circle cx="1430.9" cy="61.6" r="1.3" fill="#fff" opacity="0.9"/><circle cx="445.3" cy="358.7" r="1.6" fill="#fff" opacity="0.8"/><circle cx="1127.5" cy="81.3" r="1.3" fill="#fff" opacity="0.5"/><circle cx="1093.3" cy="263.8" r="1.0" fill="#fff" opacity="0.9"/><circle cx="672.5" cy="91.7" r="1.5" fill="#fff" opacity="0.9"/><circle cx="895.9" cy="237.4" r="2.3" fill="#fff" opacity="0.9"/><circle cx="1216.7" cy="158.7" r="1.7" fill="#fff" opacity="0.9"/><circle cx="1262.8" cy="220.5" r="1.4" fill="#fff" opacity="0.5"/><circle cx="1177.3" cy="214.1" r="0.8" fill="#fff" opacity="0.8"/><circle cx="1446.1" cy="303.1" r="2.2" fill="#fff" opacity="0.9"/><circle cx="855.9" cy="299.9" r="1.4" fill="#fff" opacity="0.4"/><circle cx="565.1" cy="118.6" r="2.3" fill="#fff" opacity="0.7"/><circle cx="866.6" cy="236.4" r="1.0" fill="#fff" opacity="0.6"/><circle cx="1121.0" cy="149.8" r="1.2" fill="#fff" opacity="0.6"/><circle cx="517.7" cy="260.4" r="1.0" fill="#fff" opacity="0.4"/><circle cx="500.0" cy="264.4" r="2.0" fill="#fff" opacity="0.7"/><circle cx="1495.5" cy="138.9" r="0.8" fill="#fff" opacity="0.6"/><circle cx="709.9" cy="68.2" r="1.9" fill="#fff" opacity="0.5"/><circle cx="381.4" cy="124.4" r="2.3" fill="#fff" opacity="0.3"/><circle cx="576.5" cy="106.3" r="1.1" fill="#fff" opacity="0.6"/><circle cx="352.6" cy="349.2" r="1.6" fill="#fff" opacity="0.8"/><circle cx="259.8" cy="176.6" r="1.8" fill="#fff" opacity="0.8"/><circle cx="399.8" cy="174.7" r="2.2" fill="#fff" opacity="0.8"/><circle cx="364.0" cy="204.4" r="2.0" fill="#fff" opacity="0.6"/><circle cx="1077.4" cy="252.0" r="2.4" fill="#fff" opacity="0.7"/><circle cx="1089.3" cy="133.1" r="2.0" fill="#fff" opacity="0.5"/><circle cx="799.8" cy="137.1" r="1.3" fill="#fff" opacity="0.4"/><circle cx="361.1" cy="206.8" r="1.2" fill="#fff" opacity="0.3"/><circle cx="1285.8" cy="108.5" r="2.3" fill="#fff" opacity="0.7"/><circle cx="622.5" cy="331.8" r="2.2" fill="#fff" opacity="0.5"/><circle cx="201.3" cy="243.6" r="2.1" fill="#fff" opacity="0.7"/><circle cx="1254.9" cy="156.7" r="1.8" fill="#fff" opacity="0.5"/><circle cx="1320" cy="180" r="140.8" fill="url(#nyrg2)"/><circle cx="1320" cy="180" r="44" fill="#fff5d8" opacity="0.9"/><rect x="0.0" y="605.5" width="69.5" height="154.5" fill="#343a79"/><rect x="70.9" y="641.1" width="97.5" height="118.9" fill="#343a79"/><rect x="95.0" y="626.9" width="48.3" height="15.3" fill="#343a79"/><rect x="168.9" y="581.1" width="109.0" height="178.9" fill="#343a79"/><rect x="195.9" y="559.7" width="54.0" height="22.5" fill="#343a79"/><rect x="281.9" y="530.4" width="102.1" height="229.6" fill="#343a79"/><rect x="387.5" y="646.7" width="62.4" height="113.3" fill="#343a79"/><rect x="453.8" y="520.4" width="55.8" height="239.6" fill="#343a79"/><rect x="467.5" y="491.7" width="27.4" height="29.7" fill="#343a79"/><rect x="510.5" y="640.9" width="41.9" height="119.1" fill="#343a79"/><rect x="520.7" y="626.6" width="20.5" height="15.3" fill="#343a79"/><rect x="555.7" y="637.7" width="61.8" height="122.3" fill="#343a79"/><rect x="570.9" y="623.0" width="30.4" height="15.7" fill="#343a79"/><rect x="618.3" y="566.8" width="101.4" height="193.2" fill="#343a79"/><rect x="643.4" y="543.7" width="50.2" height="24.2" fill="#343a79"/><rect x="722.8" y="593.8" width="78.5" height="166.2" fill="#343a79"/><rect x="804.2" y="584.1" width="97.0" height="175.9" fill="#343a79"/><rect x="903.1" y="604.0" width="85.4" height="156.0" fill="#343a79"/><rect x="990.6" y="622.7" width="91.1" height="137.3" fill="#343a79"/><rect x="1083.6" y="552.6" width="100.9" height="207.4" fill="#343a79"/><rect x="1187.5" y="601.0" width="70.9" height="159.0" fill="#343a79"/><rect x="1261.9" y="648.0" width="99.7" height="112.0" fill="#343a79"/><rect x="1286.6" y="634.6" width="49.4" height="14.4" fill="#343a79"/><rect x="1361.3" y="660.4" width="46.9" height="99.6" fill="#343a79"/><rect x="1372.8" y="648.5" width="22.9" height="13.0" fill="#343a79"/><rect x="1408.7" y="553.5" width="48.9" height="206.5" fill="#343a79"/><rect x="1462.4" y="543.1" width="108.2" height="216.9" fill="#343a79"/><rect x="1569.8" y="512.6" width="57.0" height="247.4" fill="#343a79"/><rect x="0.0" y="546.8" width="94.0" height="233.2" fill="#1b1f4a"/><rect x="22" y="560" width="5" height="8" fill="#ffd88a" opacity="0.5"/><rect x="8" y="596" width="5" height="8" fill="#ffd88a" opacity="0.6"/><rect x="64" y="614" width="5" height="8" fill="#ffd88a" opacity="0.8"/><rect x="22" y="632" width="5" height="8" fill="#ffd88a" opacity="0.7"/><rect x="50" y="632" width="5" height="8" fill="#ffd88a" opacity="0.8"/><rect x="8" y="650" width="5" height="8" fill="#ffd88a" opacity="0.7"/><rect x="22" y="650" width="5" height="8" fill="#ffd88a" opacity="0.9"/><rect x="50" y="650" width="5" height="8" fill="#ffd88a" opacity="0.8"/><rect x="22" y="686" width="5" height="8" fill="#ffd88a" opacity="0.7"/><rect x="36" y="686" width="5" height="8" fill="#ffd88a" opacity="0.7"/><rect x="8" y="722" width="5" height="8" fill="#ffd88a" opacity="0.8"/><rect x="22" y="722" width="5" height="8" fill="#ffd88a" opacity="0.6"/><rect x="78" y="722" width="5" height="8" fill="#ffd88a" opacity="0.7"/><rect x="36" y="740" width="5" height="8" fill="#ffd88a" opacity="0.6"/><rect x="95.1" y="474.7" width="91.1" height="305.3" fill="#1b1f4a"/><rect x="117.6" y="438.0" width="45.0" height="37.6" fill="#1b1f4a"/><rect x="131" y="506" width="5" height="8" fill="#ffd88a" opacity="0.9"/><rect x="117" y="524" width="5" height="8" fill="#ffd88a" opacity="0.9"/><rect x="159" y="524" width="5" height="8" fill="#ffd88a" opacity="0.7"/><rect x="173" y="524" width="5" height="8" fill="#ffd88a" opacity="0.5"/><rect x="103" y="542" width="5" height="8" fill="#ffd88a" opacity="0.7"/><rect x="117" y="542" width="5" height="8" fill="#ffd88a" opacity="0.6"/><rect x="117" y="560" width="5" height="8" fill="#ffd88a" opacity="0.6"/><rect x="117" y="578" width="5" height="8" fill="#ffd88a" opacity="1.0"/><rect x="173" y="578" width="5" height="8" fill="#ffd88a" opacity="0.8"/><rect x="117" y="596" width="5" height="8" fill="#ffd88a" opacity="0.8"/><rect x="131" y="596" width="5" height="8" fill="#ffd88a" opacity="0.9"/><rect x="103" y="614" width="5" height="8" fill="#ffd88a" opacity="0.7"/><rect x="145" y="614" width="5" height="8" fill="#ffd88a" opacity="1.0"/><rect x="117" y="650" width="5" height="8" fill="#ffd88a" opacity="0.9"/><rect x="173" y="650" width="5" height="8" fill="#ffd88a" opacity="0.7"/><rect x="145" y="686" width="5" height="8" fill="#ffd88a" opacity="0.6"/><rect x="159" y="686" width="5" height="8" fill="#ffd88a" opacity="1.0"/><rect x="173" y="686" width="5" height="8" fill="#ffd88a" opacity="0.8"/><rect x="103" y="704" width="5" height="8" fill="#ffd88a" opacity="1.0"/><rect x="131" y="704" width="5" height="8" fill="#ffd88a" opacity="0.9"/><rect x="173" y="704" width="5" height="8" fill="#ffd88a" opacity="0.7"/><rect x="159" y="740" width="5" height="8" fill="#ffd88a" opacity="0.5"/><rect x="117" y="758" width="5" height="8" fill="#ffd88a" opacity="0.7"/><rect x="188.4" y="441.0" width="110.1" height="339.0" fill="#1b1f4a"/><rect x="215.6" y="400.3" width="54.6" height="41.7" fill="#1b1f4a"/><rect x="238" y="454" width="5" height="8" fill="#ffd88a" opacity="0.7"/><rect x="196" y="472" width="5" height="8" fill="#ffd88a" opacity="0.6"/><rect x="224" y="472" width="5" height="8" fill="#ffd88a" opacity="0.6"/><rect x="252" y="490" width="5" height="8" fill="#ffd88a" opacity="1.0"/><rect x="210" y="508" width="5" height="8" fill="#ffd88a" opacity="0.6"/><rect x="224" y="508" width="5" height="8" fill="#ffd88a" opacity="0.5"/><rect x="210" y="544" width="5" height="8" fill="#ffd88a" opacity="0.7"/><rect x="238" y="544" width="5" height="8" fill="#ffd88a" opacity="0.6"/><rect x="266" y="544" width="5" height="8" fill="#ffd88a" opacity="0.8"/><rect x="266" y="562" width="5" height="8" fill="#ffd88a" opacity="1.0"/><rect x="224" y="580" width="5" height="8" fill="#ffd88a" opacity="0.8"/><rect x="238" y="580" width="5" height="8" fill="#ffd88a" opacity="0.7"/><rect x="266" y="580" width="5" height="8" fill="#ffd88a" opacity="0.6"/><rect x="224" y="598" width="5" height="8" fill="#ffd88a" opacity="0.5"/><rect x="196" y="616" width="5" height="8" fill="#ffd88a" opacity="1.0"/><rect x="238" y="616" width="5" height="8" fill="#ffd88a" opacity="0.6"/><rect x="266" y="616" width="5" height="8" fill="#ffd88a" opacity="0.9"/><rect x="280" y="616" width="5" height="8" fill="#ffd88a" opacity="0.5"/><rect x="196" y="634" width="5" height="8" fill="#ffd88a" opacity="0.6"/><rect x="266" y="634" width="5" height="8" fill="#ffd88a" opacity="0.9"/><rect x="280" y="634" width="5" height="8" fill="#ffd88a" opacity="0.6"/><rect x="224" y="652" width="5" height="8" fill="#ffd88a" opacity="0.5"/><rect x="252" y="652" width="5" height="8" fill="#ffd88a" opacity="0.9"/><rect x="266" y="652" width="5" height="8" fill="#ffd88a" opacity="0.6"/><rect x="280" y="652" width="5" height="8" fill="#ffd88a" opacity="0.7"/><rect x="238" y="670" width="5" height="8" fill="#ffd88a" opacity="0.6"/><rect x="196" y="688" width="5" height="8" fill="#ffd88a" opacity="0.7"/><rect x="224" y="688" width="5" height="8" fill="#ffd88a" opacity="0.5"/><rect x="238" y="688" width="5" height="8" fill="#ffd88a" opacity="0.9"/><rect x="252" y="688" width="5" height="8" fill="#ffd88a" opacity="0.9"/><rect x="266" y="688" width="5" height="8" fill="#ffd88a" opacity="0.8"/><rect x="280" y="688" width="5" height="8" fill="#ffd88a" opacity="0.8"/><rect x="210" y="724" width="5" height="8" fill="#ffd88a" opacity="0.6"/><rect x="252" y="724" width="5" height="8" fill="#ffd88a" opacity="0.9"/><rect x="280" y="724" width="5" height="8" fill="#ffd88a" opacity="0.5"/><rect x="196" y="742" width="5" height="8" fill="#ffd88a" opacity="0.6"/><rect x="224" y="760" width="5" height="8" fill="#ffd88a" opacity="0.9"/><rect x="238" y="760" width="5" height="8" fill="#ffd88a" opacity="0.7"/><rect x="299.4" y="479.9" width="61.9" height="300.1" fill="#1b1f4a"/><rect x="314.6" y="443.9" width="30.4" height="37.0" fill="#1b1f4a"/><rect x="321" y="511" width="5" height="8" fill="#ffd88a" opacity="0.6"/><rect x="335" y="511" width="5" height="8" fill="#ffd88a" opacity="0.6"/><rect x="321" y="529" width="5" height="8" fill="#ffd88a" opacity="0.7"/><rect x="321" y="547" width="5" height="8" fill="#ffd88a" opacity="0.7"/><rect x="335" y="547" width="5" height="8" fill="#ffd88a" opacity="0.5"/><rect x="349" y="547" width="5" height="8" fill="#ffd88a" opacity="1.0"/><rect x="307" y="583" width="5" height="8" fill="#ffd88a" opacity="0.6"/><rect x="307" y="601" width="5" height="8" fill="#ffd88a" opacity="0.9"/><rect x="335" y="601" width="5" height="8" fill="#ffd88a" opacity="0.6"/><rect x="321" y="619" width="5" height="8" fill="#ffd88a" opacity="0.5"/><rect x="321" y="637" width="5" height="8" fill="#ffd88a" opacity="0.6"/><rect x="307" y="655" width="5" height="8" fill="#ffd88a" opacity="0.6"/><rect x="335" y="655" width="5" height="8" fill="#ffd88a" opacity="0.5"/><rect x="307" y="673" width="5" height="8" fill="#ffd88a" opacity="0.9"/><rect x="307" y="691" width="5" height="8" fill="#ffd88a" opacity="0.7"/><rect x="335" y="691" width="5" height="8" fill="#ffd88a" opacity="0.9"/><rect x="349" y="691" width="5" height="8" fill="#ffd88a" opacity="1.0"/><rect x="335" y="709" width="5" height="8" fill="#ffd88a" opacity="0.9"/><rect x="362.2" y="588.6" width="91.4" height="191.4" fill="#1b1f4a"/><rect x="398" y="602" width="5" height="8" fill="#ffd88a" opacity="0.6"/><rect x="412" y="602" width="5" height="8" fill="#ffd88a" opacity="0.8"/><rect x="426" y="602" width="5" height="8" fill="#ffd88a" opacity="0.8"/><rect x="384" y="620" width="5" height="8" fill="#ffd88a" opacity="0.8"/><rect x="426" y="620" width="5" height="8" fill="#ffd88a" opacity="0.8"/><rect x="440" y="638" width="5" height="8" fill="#ffd88a" opacity="1.0"/><rect x="370" y="656" width="5" height="8" fill="#ffd88a" opacity="1.0"/><rect x="398" y="656" width="5" height="8" fill="#ffd88a" opacity="0.9"/><rect x="412" y="674" width="5" height="8" fill="#ffd88a" opacity="0.8"/><rect x="398" y="692" width="5" height="8" fill="#ffd88a" opacity="0.6"/><rect x="426" y="692" width="5" height="8" fill="#ffd88a" opacity="1.0"/><rect x="440" y="692" width="5" height="8" fill="#ffd88a" opacity="0.7"/><rect x="384" y="710" width="5" height="8" fill="#ffd88a" opacity="0.7"/><rect x="426" y="710" width="5" height="8" fill="#ffd88a" opacity="0.5"/><rect x="370" y="728" width="5" height="8" fill="#ffd88a" opacity="0.8"/><rect x="398" y="728" width="5" height="8" fill="#ffd88a" opacity="0.8"/><rect x="426" y="728" width="5" height="8" fill="#ffd88a" opacity="0.6"/><rect x="370" y="746" width="5" height="8" fill="#ffd88a" opacity="0.7"/><rect x="384" y="764" width="5" height="8" fill="#ffd88a" opacity="0.8"/><rect x="440" y="764" width="5" height="8" fill="#ffd88a" opacity="0.7"/><rect x="457.6" y="492.9" width="75.8" height="287.1" fill="#1b1f4a"/><rect x="476.3" y="458.5" width="37.4" height="35.4" fill="#1b1f4a"/><rect x="465" y="506" width="5" height="8" fill="#ffd88a" opacity="0.6"/><rect x="493" y="506" width="5" height="8" fill="#ffd88a" opacity="1.0"/><rect x="521" y="506" width="5" height="8" fill="#ffd88a" opacity="0.6"/><rect x="507" y="524" width="5" height="8" fill="#ffd88a" opacity="1.0"/><rect x="507" y="542" width="5" height="8" fill="#ffd88a" opacity="0.5"/><rect x="465" y="578" width="5" height="8" fill="#ffd88a" opacity="0.9"/><rect x="479" y="578" width="5" height="8" fill="#ffd88a" opacity="0.8"/><rect x="465" y="596" width="5" height="8" fill="#ffd88a" opacity="0.9"/><rect x="465" y="614" width="5" height="8" fill="#ffd88a" opacity="0.7"/><rect x="521" y="632" width="5" height="8" fill="#ffd88a" opacity="0.6"/><rect x="465" y="650" width="5" height="8" fill="#ffd88a" opacity="0.9"/><rect x="465" y="668" width="5" height="8" fill="#ffd88a" opacity="0.8"/><rect x="479" y="668" width="5" height="8" fill="#ffd88a" opacity="0.9"/><rect x="465" y="686" width="5" height="8" fill="#ffd88a" opacity="0.9"/><rect x="479" y="686" width="5" height="8" fill="#ffd88a" opacity="0.8"/><rect x="507" y="686" width="5" height="8" fill="#ffd88a" opacity="0.7"/><rect x="465" y="722" width="5" height="8" fill="#ffd88a" opacity="0.8"/><rect x="521" y="722" width="5" height="8" fill="#ffd88a" opacity="0.6"/><rect x="479" y="740" width="5" height="8" fill="#ffd88a" opacity="0.6"/><rect x="493" y="740" width="5" height="8" fill="#ffd88a" opacity="0.9"/><rect x="521" y="740" width="5" height="8" fill="#ffd88a" opacity="0.9"/><rect x="465" y="758" width="5" height="8" fill="#ffd88a" opacity="0.8"/><rect x="479" y="758" width="5" height="8" fill="#ffd88a" opacity="0.8"/><rect x="671.2" y="462.3" width="82.9" height="317.7" fill="#1b1f4a"/><rect x="679" y="530" width="5" height="8" fill="#ffd88a" opacity="0.8"/><rect x="735" y="530" width="5" height="8" fill="#ffd88a" opacity="0.8"/><rect x="707" y="548" width="5" height="8" fill="#ffd88a" opacity="1.0"/><rect x="679" y="566" width="5" height="8" fill="#ffd88a" opacity="0.8"/><rect x="693" y="566" width="5" height="8" fill="#ffd88a" opacity="0.9"/><rect x="721" y="566" width="5" height="8" fill="#ffd88a" opacity="0.7"/><rect x="735" y="566" width="5" height="8" fill="#ffd88a" opacity="0.6"/><rect x="735" y="584" width="5" height="8" fill="#ffd88a" opacity="0.6"/><rect x="679" y="620" width="5" height="8" fill="#ffd88a" opacity="0.6"/><rect x="735" y="620" width="5" height="8" fill="#ffd88a" opacity="0.9"/><rect x="721" y="638" width="5" height="8" fill="#ffd88a" opacity="0.7"/><rect x="693" y="656" width="5" height="8" fill="#ffd88a" opacity="0.6"/><rect x="707" y="656" width="5" height="8" fill="#ffd88a" opacity="0.8"/><rect x="707" y="692" width="5" height="8" fill="#ffd88a" opacity="0.9"/><rect x="693" y="710" width="5" height="8" fill="#ffd88a" opacity="0.9"/><rect x="707" y="710" width="5" height="8" fill="#ffd88a" opacity="0.5"/><rect x="721" y="710" width="5" height="8" fill="#ffd88a" opacity="0.8"/><rect x="707" y="728" width="5" height="8" fill="#ffd88a" opacity="1.0"/><rect x="735" y="746" width="5" height="8" fill="#ffd88a" opacity="1.0"/><rect x="679" y="764" width="5" height="8" fill="#ffd88a" opacity="0.7"/><rect x="755.0" y="633.4" width="87.3" height="146.6" fill="#1b1f4a"/><rect x="776.6" y="615.8" width="43.2" height="18.6" fill="#1b1f4a"/><rect x="791" y="647" width="5" height="8" fill="#ffd88a" opacity="0.7"/><rect x="805" y="719" width="5" height="8" fill="#ffd88a" opacity="0.8"/><rect x="819" y="719" width="5" height="8" fill="#ffd88a" opacity="0.8"/><rect x="763" y="737" width="5" height="8" fill="#ffd88a" opacity="0.8"/><rect x="777" y="737" width="5" height="8" fill="#ffd88a" opacity="0.7"/><rect x="819" y="737" width="5" height="8" fill="#ffd88a" opacity="1.0"/><rect x="763" y="755" width="5" height="8" fill="#ffd88a" opacity="0.7"/><rect x="841.9" y="584.6" width="76.6" height="195.4" fill="#1b1f4a"/><rect x="863" y="616" width="5" height="8" fill="#ffd88a" opacity="1.0"/><rect x="877" y="652" width="5" height="8" fill="#ffd88a" opacity="0.8"/><rect x="891" y="688" width="5" height="8" fill="#ffd88a" opacity="0.9"/><rect x="905" y="688" width="5" height="8" fill="#ffd88a" opacity="0.7"/><rect x="849" y="706" width="5" height="8" fill="#ffd88a" opacity="0.8"/><rect x="891" y="706" width="5" height="8" fill="#ffd88a" opacity="0.7"/><rect x="863" y="724" width="5" height="8" fill="#ffd88a" opacity="0.7"/><rect x="877" y="742" width="5" height="8" fill="#ffd88a" opacity="0.9"/><rect x="891" y="742" width="5" height="8" fill="#ffd88a" opacity="1.0"/><rect x="905" y="760" width="5" height="8" fill="#ffd88a" opacity="0.5"/><rect x="918.5" y="615.8" width="83.4" height="164.2" fill="#1b1f4a"/><rect x="939.1" y="596.1" width="41.2" height="20.7" fill="#1b1f4a"/><rect x="940" y="629" width="5" height="8" fill="#ffd88a" opacity="0.7"/><rect x="968" y="629" width="5" height="8" fill="#ffd88a" opacity="0.9"/><rect x="982" y="629" width="5" height="8" fill="#ffd88a" opacity="0.7"/><rect x="954" y="647" width="5" height="8" fill="#ffd88a" opacity="0.9"/><rect x="968" y="647" width="5" height="8" fill="#ffd88a" opacity="1.0"/><rect x="982" y="665" width="5" height="8" fill="#ffd88a" opacity="0.6"/><rect x="940" y="683" width="5" height="8" fill="#ffd88a" opacity="0.6"/><rect x="954" y="683" width="5" height="8" fill="#ffd88a" opacity="0.9"/><rect x="982" y="683" width="5" height="8" fill="#ffd88a" opacity="0.9"/><rect x="926" y="701" width="5" height="8" fill="#ffd88a" opacity="0.7"/><rect x="954" y="701" width="5" height="8" fill="#ffd88a" opacity="0.7"/><rect x="926" y="719" width="5" height="8" fill="#ffd88a" opacity="0.6"/><rect x="954" y="719" width="5" height="8" fill="#ffd88a" opacity="0.6"/><rect x="926" y="737" width="5" height="8" fill="#ffd88a" opacity="0.8"/><rect x="982" y="737" width="5" height="8" fill="#ffd88a" opacity="0.6"/><rect x="982" y="755" width="5" height="8" fill="#ffd88a" opacity="0.7"/><rect x="1001.8" y="487.8" width="74.6" height="292.2" fill="#1b1f4a"/><rect x="1020.2" y="452.7" width="36.8" height="36.1" fill="#1b1f4a"/><rect x="1009" y="519" width="5" height="8" fill="#ffd88a" opacity="0.6"/><rect x="1037" y="573" width="5" height="8" fill="#ffd88a" opacity="0.6"/><rect x="1009" y="591" width="5" height="8" fill="#ffd88a" opacity="0.8"/><rect x="1051" y="591" width="5" height="8" fill="#ffd88a" opacity="0.8"/><rect x="1009" y="609" width="5" height="8" fill="#ffd88a" opacity="0.7"/><rect x="1037" y="609" width="5" height="8" fill="#ffd88a" opacity="0.6"/><rect x="1009" y="627" width="5" height="8" fill="#ffd88a" opacity="0.8"/><rect x="1023" y="645" width="5" height="8" fill="#ffd88a" opacity="0.8"/><rect x="1009" y="663" width="5" height="8" fill="#ffd88a" opacity="0.6"/><rect x="1065" y="663" width="5" height="8" fill="#ffd88a" opacity="0.9"/><rect x="1037" y="681" width="5" height="8" fill="#ffd88a" opacity="0.5"/><rect x="1023" y="699" width="5" height="8" fill="#ffd88a" opacity="0.5"/><rect x="1037" y="699" width="5" height="8" fill="#ffd88a" opacity="0.9"/><rect x="1051" y="735" width="5" height="8" fill="#ffd88a" opacity="0.9"/><rect x="1009" y="753" width="5" height="8" fill="#ffd88a" opacity="0.7"/><rect x="1051" y="753" width="5" height="8" fill="#ffd88a" opacity="0.9"/><rect x="1065" y="753" width="5" height="8" fill="#ffd88a" opacity="0.6"/><rect x="1075.7" y="540.3" width="73.3" height="239.7" fill="#1b1f4a"/><rect x="1093.8" y="511.5" width="36.1" height="29.8" fill="#1b1f4a"/><rect x="1097" y="554" width="5" height="8" fill="#ffd88a" opacity="1.0"/><rect x="1083" y="572" width="5" height="8" fill="#ffd88a" opacity="0.5"/><rect x="1097" y="590" width="5" height="8" fill="#ffd88a" opacity="0.6"/><rect x="1097" y="608" width="5" height="8" fill="#ffd88a" opacity="0.7"/><rect x="1083" y="626" width="5" height="8" fill="#ffd88a" opacity="0.7"/><rect x="1111" y="626" width="5" height="8" fill="#ffd88a" opacity="0.8"/><rect x="1125" y="662" width="5" height="8" fill="#ffd88a" opacity="0.8"/><rect x="1097" y="680" width="5" height="8" fill="#ffd88a" opacity="1.0"/><rect x="1111" y="680" width="5" height="8" fill="#ffd88a" opacity="0.7"/><rect x="1083" y="698" width="5" height="8" fill="#ffd88a" opacity="0.6"/><rect x="1083" y="716" width="5" height="8" fill="#ffd88a" opacity="0.6"/><rect x="1111" y="734" width="5" height="8" fill="#ffd88a" opacity="0.9"/><rect x="1097" y="752" width="5" height="8" fill="#ffd88a" opacity="0.8"/><rect x="1150.3" y="582.2" width="103.3" height="197.8" fill="#1b1f4a"/><rect x="1158" y="596" width="5" height="8" fill="#ffd88a" opacity="0.5"/><rect x="1172" y="596" width="5" height="8" fill="#ffd88a" opacity="0.7"/><rect x="1228" y="596" width="5" height="8" fill="#ffd88a" opacity="0.8"/><rect x="1242" y="596" width="5" height="8" fill="#ffd88a" opacity="0.5"/><rect x="1172" y="614" width="5" height="8" fill="#ffd88a" opacity="0.9"/><rect x="1214" y="614" width="5" height="8" fill="#ffd88a" opacity="0.7"/><rect x="1228" y="614" width="5" height="8" fill="#ffd88a" opacity="0.6"/><rect x="1242" y="632" width="5" height="8" fill="#ffd88a" opacity="0.5"/><rect x="1158" y="650" width="5" height="8" fill="#ffd88a" opacity="0.9"/><rect x="1214" y="650" width="5" height="8" fill="#ffd88a" opacity="0.8"/><rect x="1228" y="650" width="5" height="8" fill="#ffd88a" opacity="0.5"/><rect x="1158" y="668" width="5" height="8" fill="#ffd88a" opacity="0.7"/><rect x="1214" y="668" width="5" height="8" fill="#ffd88a" opacity="0.8"/><rect x="1228" y="668" width="5" height="8" fill="#ffd88a" opacity="1.0"/><rect x="1186" y="686" width="5" height="8" fill="#ffd88a" opacity="0.6"/><rect x="1242" y="686" width="5" height="8" fill="#ffd88a" opacity="0.8"/><rect x="1200" y="704" width="5" height="8" fill="#ffd88a" opacity="0.8"/><rect x="1214" y="704" width="5" height="8" fill="#ffd88a" opacity="0.6"/><rect x="1228" y="704" width="5" height="8" fill="#ffd88a" opacity="0.6"/><rect x="1200" y="722" width="5" height="8" fill="#ffd88a" opacity="1.0"/><rect x="1158" y="740" width="5" height="8" fill="#ffd88a" opacity="0.6"/><rect x="1242" y="740" width="5" height="8" fill="#ffd88a" opacity="0.9"/><rect x="1186" y="758" width="5" height="8" fill="#ffd88a" opacity="1.0"/><rect x="1228" y="758" width="5" height="8" fill="#ffd88a" opacity="0.6"/><rect x="1255.9" y="518.3" width="58.9" height="261.7" fill="#1b1f4a"/><rect x="1263" y="532" width="5" height="8" fill="#ffd88a" opacity="0.8"/><rect x="1291" y="532" width="5" height="8" fill="#ffd88a" opacity="0.6"/><rect x="1291" y="550" width="5" height="8" fill="#ffd88a" opacity="0.9"/><rect x="1263" y="568" width="5" height="8" fill="#ffd88a" opacity="1.0"/><rect x="1277" y="568" width="5" height="8" fill="#ffd88a" opacity="0.7"/><rect x="1277" y="586" width="5" height="8" fill="#ffd88a" opacity="0.6"/><rect x="1277" y="604" width="5" height="8" fill="#ffd88a" opacity="0.5"/><rect x="1291" y="640" width="5" height="8" fill="#ffd88a" opacity="0.5"/><rect x="1263" y="658" width="5" height="8" fill="#ffd88a" opacity="0.9"/><rect x="1263" y="676" width="5" height="8" fill="#ffd88a" opacity="0.9"/><rect x="1277" y="676" width="5" height="8" fill="#ffd88a" opacity="0.7"/><rect x="1263" y="694" width="5" height="8" fill="#ffd88a" opacity="0.7"/><rect x="1277" y="694" width="5" height="8" fill="#ffd88a" opacity="0.7"/><rect x="1263" y="766" width="5" height="8" fill="#ffd88a" opacity="0.8"/><rect x="1318.4" y="558.1" width="53.6" height="221.9" fill="#1b1f4a"/><rect x="1340" y="572" width="5" height="8" fill="#ffd88a" opacity="0.8"/><rect x="1340" y="590" width="5" height="8" fill="#ffd88a" opacity="0.5"/><rect x="1326" y="608" width="5" height="8" fill="#ffd88a" opacity="0.8"/><rect x="1354" y="608" width="5" height="8" fill="#ffd88a" opacity="1.0"/><rect x="1340" y="626" width="5" height="8" fill="#ffd88a" opacity="0.6"/><rect x="1326" y="644" width="5" height="8" fill="#ffd88a" opacity="0.6"/><rect x="1326" y="662" width="5" height="8" fill="#ffd88a" opacity="0.8"/><rect x="1340" y="698" width="5" height="8" fill="#ffd88a" opacity="0.8"/><rect x="1326" y="716" width="5" height="8" fill="#ffd88a" opacity="0.8"/><rect x="1354" y="716" width="5" height="8" fill="#ffd88a" opacity="0.7"/><rect x="1326" y="734" width="5" height="8" fill="#ffd88a" opacity="0.9"/><rect x="1371.2" y="588.8" width="82.1" height="191.2" fill="#1b1f4a"/><rect x="1379" y="602" width="5" height="8" fill="#ffd88a" opacity="0.9"/><rect x="1407" y="602" width="5" height="8" fill="#ffd88a" opacity="0.9"/><rect x="1421" y="602" width="5" height="8" fill="#ffd88a" opacity="0.6"/><rect x="1379" y="620" width="5" height="8" fill="#ffd88a" opacity="0.7"/><rect x="1379" y="638" width="5" height="8" fill="#ffd88a" opacity="0.6"/><rect x="1421" y="638" width="5" height="8" fill="#ffd88a" opacity="0.8"/><rect x="1435" y="638" width="5" height="8" fill="#ffd88a" opacity="0.8"/><rect x="1393" y="656" width="5" height="8" fill="#ffd88a" opacity="0.9"/><rect x="1421" y="656" width="5" height="8" fill="#ffd88a" opacity="0.6"/><rect x="1379" y="674" width="5" height="8" fill="#ffd88a" opacity="1.0"/><rect x="1407" y="674" width="5" height="8" fill="#ffd88a" opacity="0.6"/><rect x="1421" y="674" width="5" height="8" fill="#ffd88a" opacity="0.6"/><rect x="1379" y="728" width="5" height="8" fill="#ffd88a" opacity="0.6"/><rect x="1393" y="728" width="5" height="8" fill="#ffd88a" opacity="0.7"/><rect x="1421" y="728" width="5" height="8" fill="#ffd88a" opacity="0.5"/><rect x="1435" y="728" width="5" height="8" fill="#ffd88a" opacity="0.9"/><rect x="1421" y="746" width="5" height="8" fill="#ffd88a" opacity="0.6"/><rect x="1435" y="764" width="5" height="8" fill="#ffd88a" opacity="0.9"/><rect x="1457.6" y="523.0" width="81.2" height="257.0" fill="#1b1f4a"/><rect x="1479" y="537" width="5" height="8" fill="#ffd88a" opacity="1.0"/><rect x="1493" y="573" width="5" height="8" fill="#ffd88a" opacity="0.9"/><rect x="1507" y="573" width="5" height="8" fill="#ffd88a" opacity="0.7"/><rect x="1465" y="591" width="5" height="8" fill="#ffd88a" opacity="1.0"/><rect x="1479" y="609" width="5" height="8" fill="#ffd88a" opacity="1.0"/><rect x="1493" y="627" width="5" height="8" fill="#ffd88a" opacity="0.6"/><rect x="1465" y="645" width="5" height="8" fill="#ffd88a" opacity="0.8"/><rect x="1507" y="645" width="5" height="8" fill="#ffd88a" opacity="0.9"/><rect x="1521" y="645" width="5" height="8" fill="#ffd88a" opacity="0.6"/><rect x="1521" y="681" width="5" height="8" fill="#ffd88a" opacity="0.6"/><rect x="1493" y="717" width="5" height="8" fill="#ffd88a" opacity="0.6"/><rect x="1521" y="717" width="5" height="8" fill="#ffd88a" opacity="0.7"/><rect x="1465" y="735" width="5" height="8" fill="#ffd88a" opacity="0.8"/><rect x="1543.8" y="637.5" width="81.0" height="142.5" fill="#1b1f4a"/><rect x="1551" y="651" width="5" height="8" fill="#ffd88a" opacity="0.5"/><rect x="1551" y="669" width="5" height="8" fill="#ffd88a" opacity="0.5"/><rect x="1565" y="669" width="5" height="8" fill="#ffd88a" opacity="0.7"/><rect x="1579" y="669" width="5" height="8" fill="#ffd88a" opacity="0.8"/><rect x="1565" y="687" width="5" height="8" fill="#ffd88a" opacity="0.9"/><rect x="1579" y="687" width="5" height="8" fill="#ffd88a" opacity="0.9"/><rect x="1565" y="705" width="5" height="8" fill="#ffd88a" opacity="0.9"/><rect x="1593" y="705" width="5" height="8" fill="#ffd88a" opacity="0.6"/><rect x="1551" y="723" width="5" height="8" fill="#ffd88a" opacity="0.6"/><rect x="1593" y="723" width="5" height="8" fill="#ffd88a" opacity="0.8"/><rect x="1607" y="723" width="5" height="8" fill="#ffd88a" opacity="0.7"/><rect x="1593" y="741" width="5" height="8" fill="#ffd88a" opacity="0.7"/><rect x="1607" y="741" width="5" height="8" fill="#ffd88a" opacity="0.6"/><rect x="1593" y="759" width="5" height="8" fill="#ffd88a" opacity="0.8"/><path d="M574.0 780.0 L574.0 473.1 L586.0 445.2 L586.0 378.2 L598.0 355.9 L598.0 311.3 L610.0 294.5 L616.0 249.9 L618.5 222.0 L621.5 222.0 L624.0 249.9 L630.0 294.5 L642.0 311.3 L642.0 355.9 L654.0 378.2 L654.0 445.2 L666.0 473.1 L666.0 780.0Z" fill="#1b1f4a"/><rect x="582" y="489" width="5" height="9" fill="#ffd88a" opacity=".85"/><rect x="621" y="489" width="5" height="9" fill="#ffd88a" opacity=".85"/><rect x="634" y="489" width="5" height="9" fill="#ffd88a" opacity=".85"/><rect x="582" y="509" width="5" height="9" fill="#ffd88a" opacity=".85"/><rect x="595" y="509" width="5" height="9" fill="#ffd88a" opacity=".85"/><rect x="621" y="509" width="5" height="9" fill="#ffd88a" opacity=".85"/><rect x="634" y="509" width="5" height="9" fill="#ffd88a" opacity=".85"/><rect x="608" y="529" width="5" height="9" fill="#ffd88a" opacity=".85"/><rect x="647" y="529" width="5" height="9" fill="#ffd88a" opacity=".85"/><rect x="595" y="549" width="5" height="9" fill="#ffd88a" opacity=".85"/><rect x="621" y="549" width="5" height="9" fill="#ffd88a" opacity=".85"/><rect x="582" y="569" width="5" height="9" fill="#ffd88a" opacity=".85"/><rect x="595" y="589" width="5" height="9" fill="#ffd88a" opacity=".85"/><rect x="608" y="589" width="5" height="9" fill="#ffd88a" opacity=".85"/><rect x="621" y="589" width="5" height="9" fill="#ffd88a" opacity=".85"/><rect x="634" y="589" width="5" height="9" fill="#ffd88a" opacity=".85"/><rect x="647" y="589" width="5" height="9" fill="#ffd88a" opacity=".85"/><rect x="582" y="609" width="5" height="9" fill="#ffd88a" opacity=".85"/><rect x="608" y="609" width="5" height="9" fill="#ffd88a" opacity=".85"/><rect x="621" y="609" width="5" height="9" fill="#ffd88a" opacity=".85"/><rect x="634" y="609" width="5" height="9" fill="#ffd88a" opacity=".85"/><rect x="595" y="649" width="5" height="9" fill="#ffd88a" opacity=".85"/><rect x="608" y="649" width="5" height="9" fill="#ffd88a" opacity=".85"/><rect x="621" y="649" width="5" height="9" fill="#ffd88a" opacity=".85"/><rect x="634" y="649" width="5" height="9" fill="#ffd88a" opacity=".85"/><rect x="595" y="669" width="5" height="9" fill="#ffd88a" opacity=".85"/><rect x="647" y="669" width="5" height="9" fill="#ffd88a" opacity=".85"/><rect x="608" y="709" width="5" height="9" fill="#ffd88a" opacity=".85"/><rect x="621" y="709" width="5" height="9" fill="#ffd88a" opacity=".85"/><rect x="634" y="709" width="5" height="9" fill="#ffd88a" opacity=".85"/><rect x="582" y="729" width="5" height="9" fill="#ffd88a" opacity=".85"/><rect x="621" y="729" width="5" height="9" fill="#ffd88a" opacity=".85"/><rect x="647" y="729" width="5" height="9" fill="#ffd88a" opacity=".85"/><rect x="595" y="749" width="5" height="9" fill="#ffd88a" opacity=".85"/><rect x="608" y="749" width="5" height="9" fill="#ffd88a" opacity=".85"/><rect x="582" y="769" width="5" height="9" fill="#ffd88a" opacity=".85"/><rect x="608" y="769" width="5" height="9" fill="#ffd88a" opacity=".85"/><rect x="621" y="769" width="5" height="9" fill="#ffd88a" opacity=".85"/><rect x="0" y="780" width="1600" height="220" fill="url(#nylg3)"/><rect x="506.4" y="894.8" width="180.7" height="3.1" rx="2" fill="#ffd88a" opacity="0.1"/><rect x="433.8" y="965.4" width="105.9" height="4.0" rx="2" fill="#ffd88a" opacity="0.2"/><rect x="797.5" y="999.4" width="183.6" height="4.5" rx="2" fill="#ffd88a" opacity="0.2"/><rect x="300.3" y="801.9" width="48.8" height="1.8" rx="2" fill="#ffd88a" opacity="0.2"/><rect x="403.2" y="815.8" width="44.3" height="2.0" rx="2" fill="#ffd88a" opacity="0.1"/><rect x="1117.1" y="957.0" width="117.8" height="3.9" rx="2" fill="#ffd88a" opacity="0.3"/><rect x="274.3" y="940.5" width="145.7" height="3.7" rx="2" fill="#ffd88a" opacity="0.2"/><rect x="1323.3" y="859.5" width="61.5" height="2.6" rx="2" fill="#ffd88a" opacity="0.3"/><rect x="954.5" y="968.2" width="253.8" height="4.1" rx="2" fill="#ffd88a" opacity="0.3"/><rect x="273.0" y="920.9" width="208.5" height="3.4" rx="2" fill="#ffd88a" opacity="0.2"/><rect x="1573.0" y="807.7" width="55.2" height="1.9" rx="2" fill="#ffd88a" opacity="0.2"/><rect x="479.1" y="848.4" width="107.7" height="2.4" rx="2" fill="#ffd88a" opacity="0.2"/><rect x="918.2" y="942.7" width="189.1" height="3.7" rx="2" fill="#ffd88a" opacity="0.2"/><rect x="115.6" y="825.8" width="28.5" height="2.1" rx="2" fill="#ffd88a" opacity="0.2"/><rect x="272.5" y="967.3" width="243.8" height="4.1" rx="2" fill="#ffd88a" opacity="0.3"/><rect x="1435.7" y="866.2" width="80.1" height="2.7" rx="2" fill="#ffd88a" opacity="0.2"/><rect x="426.8" y="905.6" width="198.4" height="3.2" rx="2" fill="#ffd88a" opacity="0.2"/><rect x="1124.5" y="812.0" width="46.5" height="1.9" rx="2" fill="#ffd88a" opacity="0.1"/><rect x="789.2" y="894.5" width="55.0" height="3.1" rx="2" fill="#ffd88a" opacity="0.1"/><rect x="1375.3" y="927.4" width="128.5" height="3.5" rx="2" fill="#ffd88a" opacity="0.2"/><rect x="468.7" y="819.3" width="81.0" height="2.0" rx="2" fill="#ffd88a" opacity="0.3"/><rect x="946.4" y="925.0" width="204.6" height="3.5" rx="2" fill="#ffd88a" opacity="0.2"/><rect x="299.3" y="841.2" width="87.1" height="2.3" rx="2" fill="#ffd88a" opacity="0.2"/><rect x="935.1" y="882.9" width="177.8" height="2.9" rx="2" fill="#ffd88a" opacity="0.3"/><rect x="1222.2" y="810.5" width="116.9" height="1.9" rx="2" fill="#ffd88a" opacity="0.2"/><rect x="512.2" y="933.1" width="176.8" height="3.6" rx="2" fill="#ffd88a" opacity="0.2"/><rect x="518.6" y="805.4" width="28.1" height="1.8" rx="2" fill="#ffd88a" opacity="0.2"/><rect x="287.0" y="830.9" width="124.3" height="2.2" rx="2" fill="#ffd88a" opacity="0.2"/><rect x="58.7" y="811.4" width="58.9" height="1.9" rx="2" fill="#ffd88a" opacity="0.2"/><rect x="983.7" y="969.8" width="179.3" height="4.1" rx="2" fill="#ffd88a" opacity="0.2"/><rect x="18.3" y="915.3" width="61.1" height="3.3" rx="2" fill="#ffd88a" opacity="0.2"/><rect x="1361.7" y="836.2" width="21.6" height="2.3" rx="2" fill="#ffd88a" opacity="0.2"/><rect x="266.9" y="948.6" width="99.4" height="3.8" rx="2" fill="#ffd88a" opacity="0.3"/><rect x="1514.7" y="827.4" width="52.5" height="2.1" rx="2" fill="#ffd88a" opacity="0.2"/><rect x="128.5" y="954.5" width="222.3" height="3.9" rx="2" fill="#ffd88a" opacity="0.1"/><rect x="1430.7" y="841.6" width="138.1" height="2.3" rx="2" fill="#ffd88a" opacity="0.1"/><rect x="727.0" y="900.2" width="38.2" height="3.1" rx="2" fill="#ffd88a" opacity="0.3"/><rect x="260.0" y="882.9" width="69.2" height="2.9" rx="2" fill="#ffd88a" opacity="0.3"/><rect x="298.5" y="897.5" width="33.0" height="3.1" rx="2" fill="#ffd88a" opacity="0.1"/><rect x="611.5" y="884.0" width="50.3" height="2.9" rx="2" fill="#ffd88a" opacity="0.1"/><rect x="18.4" y="999.7" width="238.7" height="4.5" rx="2" fill="#ffd88a" opacity="0.2"/><rect x="890.5" y="810.7" width="96.8" height="1.9" rx="2" fill="#ffd88a" opacity="0.3"/><rect x="570.4" y="883.2" width="147.2" height="2.9" rx="2" fill="#ffd88a" opacity="0.2"/><rect x="1084.8" y="845.3" width="39.3" height="2.4" rx="2" fill="#ffd88a" opacity="0.3"/><rect x="297.9" y="918.2" width="75.1" height="3.4" rx="2" fill="#ffd88a" opacity="0.2"/><rect x="464.0" y="882.9" width="89.3" height="2.9" rx="2" fill="#ffd88a" opacity="0.2"/><rect x="91.0" y="882.8" width="59.8" height="2.9" rx="2" fill="#ffd88a" opacity="0.2"/><rect x="133.7" y="819.4" width="86.5" height="2.0" rx="2" fill="#ffd88a" opacity="0.2"/><rect x="204.4" y="855.4" width="142.9" height="2.5" rx="2" fill="#ffd88a" opacity="0.3"/><rect x="761.4" y="856.0" width="52.5" height="2.5" rx="2" fill="#ffd88a" opacity="0.3"/><rect x="570.2" y="786.0" width="99.5" height="5" rx="2.5" fill="#ffd88a" opacity="0.4"/><rect x="583.7" y="800.0" width="72.6" height="5" rx="2.5" fill="#ffd88a" opacity="0.4"/><rect x="573.2" y="814.0" width="93.6" height="5" rx="2.5" fill="#ffd88a" opacity="0.3"/><rect x="591.5" y="828.0" width="57.1" height="5" rx="2.5" fill="#ffd88a" opacity="0.3"/><rect x="586.8" y="842.0" width="66.4" height="5" rx="2.5" fill="#ffd88a" opacity="0.2"/><rect x="593.0" y="856.0" width="54.0" height="5" rx="2.5" fill="#ffd88a" opacity="0.2"/><rect x="596.5" y="870.0" width="47.0" height="5" rx="2.5" fill="#ffd88a" opacity="0.2"/><rect x="602.3" y="884.0" width="35.4" height="5" rx="2.5" fill="#ffd88a" opacity="0.1"/><rect x="609.7" y="898.0" width="20.6" height="5" rx="2.5" fill="#ffd88a" opacity="0.1"/><rect x="614.8" y="912.0" width="10.4" height="5" rx="2.5" fill="#ffd88a" opacity="0.0"/><rect x="950" y="820" width="700" height="10" fill="#0b0e2a"/><rect x="1116.0" y="650.0" width="18" height="230.0" fill="#0b0e2a"/><rect x="1111.0" y="735.0" width="28" height="6" fill="#0b0e2a"/><rect x="1466.0" y="650.0" width="18" height="230.0" fill="#0b0e2a"/><rect x="1461.0" y="735.0" width="28" height="6" fill="#0b0e2a"/><path d="M950 820 Q1037.5 760.5 1125.0 650.0 Q1300.0 837.0 1475.0 650.0 Q1562.5 760.5 1650 820" fill="none" stroke="#0b0e2a" stroke-width="4"/><rect width="1600" height="1000" filter="url(#nyfl4)" opacity="0.07"/></svg>